<?xml version="1.0" standalone="no"?>
<!DOCTYPE svg PUBLIC "-//W3C//DTD SVG 1.1//EN" "http://www.w3.org/Graphics/SVG/1.1/DTD/svg11.dtd" >
<svg xmlns="http://www.w3.org/2000/svg" xmlns:xlink="http://www.w3.org/1999/xlink" version="1.1">
<metadata>
Created by FontForge 20161003 at Mon Apr 15 06:47:46 2019
 By www-data
Copyright (c) 2001, 2006 Nick Curtis. All Rights Reserved. Distributed under the 1001Fonts Free For Commercial Use License (FFC) http://www.1001fonts.com/licenses/ffc.html - PayPal donations in any amount may be made at nicksfonts.com.
</metadata>
<defs>
<font id="MinstrelPosterTwoNF" horiz-adv-x="754" >
  <font-face 
    font-family="MinstrelPosterTwoNF"
    font-weight="400"
    font-stretch="normal"
    units-per-em="1000"
    panose-1="2 0 5 6 2 0 0 2 0 4"
    ascent="800"
    descent="-200"
    x-height="563"
    cap-height="678"
    bbox="-150 -183 2142 930"
    underline-thickness="65"
    underline-position="-106"
    unicode-range="U+0020-2212"
  />
<missing-glyph horiz-adv-x="176" 
 />
    <glyph glyph-name=".notdef" horiz-adv-x="176" 
 />
    <glyph glyph-name=".null" horiz-adv-x="0" 
 />
    <glyph glyph-name="nonmarkingreturn" horiz-adv-x="333" 
 />
    <glyph glyph-name="space" unicode=" " horiz-adv-x="300" 
 />
    <glyph glyph-name="exclam" unicode="!" horiz-adv-x="332" 
d="M253 617l-26 -382h-122l-26 382h174zM249 137q0 -34 -24 -58t-57 -24q-34 0 -58.5 24t-24.5 58q0 33 24.5 57.5t56.5 24.5q34 0 58.5 -24t24.5 -58zM308 682l-31 -467q19 -36 19 -77q0 -62 -38 -105t-92 -43t-93 43t-39 105q0 41 21 78l-31 466h284zM87 210h6
q-27 -30 -27 -72q0 -45 29.5 -76t70.5 -31t70 31t29 76q0 39 -26 72h5l29 432h-215z" />
    <glyph glyph-name="quotedbl" unicode="&#x22;" horiz-adv-x="349" 
d="M267 635l-24 -159h-61v159h85zM170 635l-3 -159h-62l-23 159h88zM325 678l-37 -244h-228l-36 244h301zM260 460l29 191h-229l28 -191h172z" />
    <glyph glyph-name="numbersign" unicode="#" horiz-adv-x="560" 
d="M475 227h-81l-16 -87h-115l16 87h-47l-14 -87h-116l16 87h-33v118h53l9 48h-62v118h82l15 86h115l-15 -86h45l16 86h115l-15 -86h32v-118h-52l-9 -48h61v-118zM307 393h-46l-8 -48h46zM536 164h-91l-16 -86h-402l17 86h-20v409h92l14 87h400l-14 -87h20v-409zM413 203h85
v331h-27l14 86h-323l-15 -86h-85v-331h28l-16 -86h323z" />
    <glyph glyph-name="dollar" unicode="$" horiz-adv-x="578" 
d="M493 425l-127 -2q46 -22 75.5 -79t29.5 -121q0 -58 -26 -108h-78v-50h-151v50h-130v141h130q-47 21 -77.5 78t-30.5 122q0 61 26 107h82v50h150v-50h127v-138zM554 360l-52 -1q31 -69 31 -136q0 -72 -52 -173h-53v-50h-273v50h-131v270h53q-30 63 -30 135q0 79 52 172h55
v51h274v-51h126v-267zM432 399l84 1v187h-127v51h-196v-51h-72q-36 -66 -36 -132q0 -102 63 -175h-85v-189h130v-51h197v51h68q36 67 36 132q0 101 -62 176z" />
    <glyph glyph-name="percent" unicode="%" horiz-adv-x="780" 
d="M526 190q0 23 24 23q9 0 15.5 -6.5t6.5 -16.5q0 -9 -6.5 -16t-15.5 -7q-11 0 -17.5 7t-6.5 16zM210 483q0 9 6.5 16t16.5 7t16.5 -7t6.5 -16q0 -10 -6.5 -16.5t-16.5 -6.5t-16.5 6.5t-6.5 16.5zM690 196q0 -56 -41.5 -95t-99.5 -39q-59 0 -101 39.5t-42 94.5t42 94.5
t101 39.5q58 0 99.5 -39t41.5 -95zM591 191q0 17 -12.5 29t-29.5 12q-18 0 -31 -12t-13 -29t13 -29.5t31 -12.5q17 0 29.5 12.5t12.5 29.5zM623 616l-338 -551h-123l327 551h134zM375 489q0 -56 -42 -95.5t-101 -39.5t-100.5 39.5t-41.5 95.5q0 55 41.5 94.5t100.5 39.5
q58 0 100.5 -39.5t42.5 -94.5zM275 483q0 18 -12.5 30t-30.5 12t-31 -12t-13 -30q0 -17 13 -29t31 -12t30.5 12t12.5 29zM739 681l-177 -287q82 -5 138 -62t56 -136q0 -82 -60.5 -140.5t-146.5 -58.5q-54 0 -100.5 24.5t-73.5 65.5l-54 -87h-274l172 289q-83 5 -139 62.5
t-56 137.5q0 82 61 140.5t147 58.5q52 0 97.5 -24t73.5 -64l49 81h287zM485 342l183 299h-193l-77 -132q-9 58 -56.5 98t-109.5 40q-69 0 -118 -46.5t-49 -111.5q0 -67 48.5 -113t118.5 -46q34 0 67 13l-180 -302h181l82 134q8 -59 56 -98.5t111 -39.5q69 0 117.5 46.5
t48.5 112.5t-48.5 112t-117.5 46q-31 0 -64 -12z" />
    <glyph glyph-name="ampersand" unicode="&#x26;" horiz-adv-x="748" 
d="M621 120l-146 -92l-43 45q-52 -27 -112 -27q-94 0 -163 57.5t-69 156.5q0 75 41 127l-27 28v206h431v-142h-260l140 -145q0 34 -15 61l159 29q15 -48 15 -91q0 -71 -27 -133zM302 208l-56 57q0 -25 14 -38t42 -19zM724 106l-263 -163l-45 53q-45 -16 -96 -16
q-120 0 -208 75.5t-88 204.5q0 63 24 117l-10 10v299h559v-187l5 1q34 -112 34 -167q0 -61 -17 -118zM472 -4l188 119l-87 91q23 61 23 127q0 46 -22 120l-205 -39l-39 41h227v190h-479v-240l19 -21q-33 -51 -33 -124q0 -110 76.5 -174.5t179.5 -64.5q57 0 107 22z" />
    <glyph glyph-name="quotesingle" unicode="'" horiz-adv-x="194" 
d="M128 636l-9 -149h-44l-10 149h63zM170 679l-18 -234h-111l-17 234h146zM131 471l13 181h-94l12 -181h69z" />
    <glyph glyph-name="parenleft" unicode="(" horiz-adv-x="371" 
d="M279 37l-150 -74q-53 176 -53 360q0 186 53 359l150 -74q-42 -140 -42 -286q0 -147 42 -285zM347 -2l-248 -123q-75 246 -75 448q0 201 75 446l248 -122q-57 -193 -57 -325q0 -135 57 -324zM118 -70l187 93q-48 158 -48 299t48 300l-187 93q-62 -200 -62 -392
q0 -190 62 -393z" />
    <glyph glyph-name="parenright" unicode=")" horiz-adv-x="372" 
d="M242 -37l-150 74q41 137 41 286q0 148 -41 285l150 74q53 -173 53 -359q0 -184 -53 -360zM273 -125l-249 122q56 186 56 326q0 139 -56 325l248 121q76 -248 76 -446q0 -196 -75 -448zM67 23l186 -93q62 203 62 393q0 192 -62 392l-186 -93q46 -156 46 -299
q0 -144 -46 -300z" />
    <glyph glyph-name="asterisk" unicode="*" horiz-adv-x="441" 
d="M342 532l-41 -23l40 -23l-40 -70l-40 24v-47h-81v47l-40 -23l-41 69l41 23l-41 23l40 68l41 -23v47h81v-47l40 23zM417 511l-6 -3l5 -3l-94 -164l-6 4v-6h-191v6l-5 -2l-96 162l6 4l-6 3l94 162l7 -4v9h191v-8l5 4zM342 509l28 15l-61 104l-28 -15v32h-121v-33l-29 15
l-60 -103l27 -15l-28 -15l62 -105l28 16v-32h121v31l28 -16l60 105z" />
    <glyph glyph-name="plus" unicode="+" horiz-adv-x="546" 
d="M462 239h-150v-150h-77v150h-150v77h150v150h77v-150h150v-77zM522 179h-150v-150h-197v150h-151v197h151v151h197v-151h150v-197zM334 216h150v122h-150v151h-121v-151h-151v-122h151v-149h121v149z" />
    <glyph glyph-name="comma" unicode="," horiz-adv-x="301" 
d="M97 15l14 35q-38 18 -38 54q0 26 23 44.5t55 18.5t54.5 -18.5t22.5 -44.5q0 -38 -33 -65.5t-72 -27.5q-14 0 -26 4zM51 -20v54q-27 30 -27 70q0 46 37 79t90 33q52 0 89 -33t37 -79q0 -58 -48.5 -100t-105.5 -42q-24 0 -72 18zM88 42l-15 -37q32 -12 50 -12
q46 0 84.5 32.5t38.5 78.5q0 33 -28 57t-67 24q-40 0 -68.5 -24t-28.5 -57q0 -36 34 -62z" />
    <glyph glyph-name="hyphen" unicode="-" horiz-adv-x="280" 
d="M209 179h-137v96h137v-96zM256 136h-232v181h232v-181zM54 163h173v128h-173v-128z" />
    <glyph glyph-name="period" unicode="." horiz-adv-x="301" 
d="M228 94q0 -24 -22.5 -41t-54.5 -17t-55 17t-23 41q0 23 23 40t55 17q31 0 54 -17t23 -40zM277 94q0 -42 -37 -72t-89 -30t-89.5 30t-37.5 72t37.5 72t89.5 30t89 -30t37 -72zM246 94q0 30 -28 52t-67 22q-40 0 -68.5 -22t-28.5 -52q0 -31 28.5 -52.5t68.5 -21.5
q39 0 67 21.5t28 52.5z" />
    <glyph glyph-name="slash" unicode="/" horiz-adv-x="651" 
d="M536 632l-248 -661h-171l256 661h163zM627 698l-298 -794h-305l307 794h296zM303 -54l267 711h-214l-274 -711h221z" />
    <glyph glyph-name="zero" unicode="0" horiz-adv-x="828" 
d="M487 334q0 -29 -21 -49.5t-52 -20.5q-30 0 -52 21t-22 49q0 29 22 50t52 21q31 0 52 -21t21 -50zM446 334q0 13 -9 21.5t-23 8.5q-13 0 -22.5 -8.5t-9.5 -21.5q0 -11 9.5 -20t22.5 -9t22.5 9t9.5 20zM738 347q0 -127 -95 -217t-229 -90q-133 0 -228 90t-95 217
q0 126 95 216t228 90t228.5 -90t95.5 -216zM512 334q0 40 -28.5 68t-69.5 28t-69.5 -28t-28.5 -68q0 -39 28.5 -66.5t69.5 -27.5t69.5 27.5t28.5 66.5zM804 347q0 -154 -114.5 -263.5t-275.5 -109.5t-275.5 109.5t-114.5 263.5t114.5 263t275.5 109t275.5 -109t114.5 -263z
M763 347q0 136 -102.5 233t-246.5 97t-246 -96.5t-102 -233.5t102 -234.5t246 -97.5q143 0 246 98t103 234z" />
    <glyph glyph-name="one" unicode="1" horiz-adv-x="342" 
d="M267 65h-152v378h-39v170h191v-548zM318 0h-255v379h-39v299h294v-678zM96 40h190v598h-229v-219h39v-379z" />
    <glyph glyph-name="two" unicode="2" horiz-adv-x="512" 
d="M428 65h-328q-17 42 -17 93q0 86 46.5 168t110.5 113v4h-148v170h148q76 0 130.5 -59t54.5 -141q0 -58 -27 -105.5t-73 -73.5h103v-169zM488 0h-426q-38 93 -38 158q0 113 66 220h-57v300h207q101 0 172.5 -78t71.5 -187q0 -60 -24 -114h28v-299zM86 40h365v218h-60
q56 68 56 155q0 93 -60.5 159t-146.5 66h-170v-220h101q-49 -47 -79.5 -118.5t-30.5 -141.5q0 -54 25 -118z" />
    <glyph glyph-name="three" unicode="3" horiz-adv-x="568" 
d="M85 613h210q72 0 124 -43.5t52 -104.5q0 -73 -67 -117q39 -23 59 -56t20 -90q0 -60 -42.5 -98.5t-112.5 -38.5h-243v171h141q11 0 17.5 7t6.5 17t-6 17t-17 7h-142v109h137q20 0 20 20q0 21 -20 21h-137v179zM24 678h271q98 0 167.5 -62.5t69.5 -150.5q0 -61 -35 -112
q47 -57 47 -151q0 -89 -59 -145.5t-157 -56.5h-304v678zM62 40h266q81 0 129.5 45.5t48.5 116.5q0 98 -63 148q51 49 51 115q0 72 -58.5 122.5t-140.5 50.5h-233v-598z" />
    <glyph glyph-name="four" unicode="4" horiz-adv-x="643" 
d="M556 65h-183v109h-269l110 439h189l-74 -280h44v147h183v-415zM619 0h-308v109h-287l140 569h321l-36 -133h170v-545zM350 40h229v464h-180l35 134h-238l-122 -488h276v-110z" />
    <glyph glyph-name="five" unicode="5" horiz-adv-x="571" 
d="M264 422h51q71 0 121 -52.5t50 -125.5q0 -75 -50.5 -127t-118.5 -52h-231v171h139q11 0 17.5 7t6.5 17t-6 17t-17 7h-140v329h352v-170h-174v-21zM499 678v-286q48 -67 48 -148q0 -101 -69 -172.5t-161 -71.5h-293v678h475zM63 40h254q77 0 134.5 59.5t57.5 144.5
q0 54 -26 100.5t-70 73.5h48v220h-398v-598z" />
    <glyph glyph-name="six" unicode="6" horiz-adv-x="663" 
d="M384 612v-144q-14 3 -26 3q-64 0 -105 -52q51 24 106 24q89 0 152.5 -55.5t63.5 -133.5t-62.5 -133.5t-150.5 -55.5q-133 0 -204 77.5t-71 186.5q0 73 30.5 136.5t93.5 105.5t147 42q17 0 26 -1zM402 254q0 9 -13 15.5t-30 6.5q-18 0 -30.5 -6.5t-12.5 -15.5
q0 -11 15.5 -17t27.5 -6q13 0 28 6t15 17zM447 672v-177q85 -26 138.5 -92t53.5 -149q0 -104 -81.5 -179t-195.5 -75q-84 0 -150.5 28t-106.5 75t-60.5 104.5t-20.5 121.5q0 66 22.5 128t63 111.5t105.5 79.5t143 30q20 0 89 -6zM408 463v172q-26 3 -50 3q-135 0 -215 -93
t-80 -216q0 -119 77 -204t222 -85q98 0 167.5 63.5t69.5 150.5q0 77 -54.5 135.5t-136.5 73.5z" />
    <glyph glyph-name="seven" unicode="7" horiz-adv-x="550" 
d="M445 613l-162 -548h-173l131 378h-118v170h322zM526 678l-200 -678h-302l132 379h-93v299h463zM299 40l177 598h-376v-219h110l-132 -379h221z" />
    <glyph glyph-name="eight" unicode="8" horiz-adv-x="660" 
d="M311 232q0 8 5.5 14t13.5 6t14 -6t6 -14t-6 -13.5t-14 -5.5q-19 0 -19 19zM312 441q0 7 5 12.5t13 5.5t13 -5.5t5 -12.5t-5 -12.5t-13 -5.5t-13 5.5t-5 12.5zM572 203q0 -69 -72 -108t-170 -39q-99 0 -171 39t-72 108q0 56 21 90t61 57q-68 44 -68 118q0 72 68.5 114
t160.5 42t161 -42t69 -114q0 -74 -69 -118q81 -46 81 -147zM367 231q0 14 -9.5 25.5t-27.5 11.5t-28 -11.5t-10 -25.5q0 -13 10 -24.5t28 -11.5t27.5 11.5t9.5 24.5zM293 442q0 -15 10 -26.5t27 -11.5t26.5 11.5t9.5 26.5t-9.5 25.5t-26.5 10.5t-27 -11t-10 -25zM636 203
q0 -67 -45.5 -116.5t-113.5 -72.5t-147 -23t-147 23t-113.5 72.5t-45.5 116.5q0 95 49 152q-36 50 -36 113q0 102 87.5 161.5t205.5 59.5t205.5 -59.5t87.5 -161.5q0 -63 -36 -113q49 -59 49 -152zM596 203q0 99 -64 149q51 49 51 116q0 84 -75.5 132t-177.5 48t-177.5 -48
t-75.5 -132q0 -66 51 -117q-65 -49 -65 -148q0 -81 79.5 -126t187.5 -45t187 45t79 126z" />
    <glyph glyph-name="nine" unicode="9" horiz-adv-x="663" 
d="M185 209h120q67 0 104 50q-50 -24 -105 -24q-90 0 -153.5 55.5t-63.5 133.5t62.5 133.5t151.5 55.5q120 0 197 -73.5t77 -200.5q-4 -111 -76.5 -192.5t-193.5 -81.5h-120v144zM347 424q0 11 -13 17.5t-30 6.5q-18 0 -31 -6.5t-13 -17.5q0 -22 44 -22q43 0 43 22zM121 0
v231q-97 77 -97 193q0 105 81 179.5t196 74.5q147 0 242.5 -91t95.5 -248q-5 -137 -95 -238t-239 -101h-184zM161 40h144q131 0 210.5 89t83.5 209q0 139 -84 219.5t-214 80.5q-98 0 -168 -63.5t-70 -150.5q0 -61 36.5 -112.5t96.5 -78.5h-35v-193z" />
    <glyph glyph-name="colon" unicode=":" horiz-adv-x="301" 
d="M227 314q0 -32 -22.5 -54.5t-54.5 -22.5t-54.5 22.5t-22.5 54.5t22.5 54.5t54.5 22.5t54.5 -22.5t22.5 -54.5zM226 125q0 -32 -22.5 -54.5t-53.5 -22.5q-32 0 -54.5 22.5t-22.5 54.5q0 31 22.5 53.5t54.5 22.5q31 0 53.5 -22.5t22.5 -53.5zM277 124q0 -55 -37 -95
t-89 -40t-89.5 39.5t-37.5 95.5q0 55 37 94q-37 39 -37 95q0 57 37 96t90 39q52 0 89 -39t37 -96q0 -56 -37 -95q37 -39 37 -94zM246 124q0 33 -20.5 59.5t-51.5 34.5q31 8 51.5 35t20.5 60q0 41 -28 69.5t-67 28.5q-41 0 -69 -28.5t-28 -69.5q0 -34 20 -60.5t52 -34.5
q-32 -8 -52 -34.5t-20 -59.5q0 -41 28.5 -69.5t68.5 -28.5q39 0 67 29t28 69z" />
    <glyph glyph-name="semicolon" unicode=";" horiz-adv-x="301" 
d="M228 321q0 -32 -22.5 -55t-54.5 -23t-55 23t-23 55t23 54.5t55 22.5t54.5 -22.5t22.5 -54.5zM97 19l14 43q-38 21 -38 67q0 32 23 55t55 23t54.5 -23t22.5 -55q0 -47 -33 -81t-72 -34q-15 0 -26 5zM51 -25v67q-27 37 -27 87q0 56 35 96q-35 40 -35 96q0 58 37 98t90 40
q52 0 89 -40t37 -98q0 -55 -36 -96q36 -41 36 -96q0 -72 -48.5 -124t-105.5 -52q-21 0 -72 22zM88 52l-15 -46q33 -15 50 -15q46 0 84.5 41t38.5 97q0 33 -19 59.5t-49 36.5q30 9 49 36t19 60q0 42 -28 71t-67 29q-41 0 -69 -29t-28 -71q0 -33 19 -60t49 -36
q-30 -10 -49 -36.5t-19 -59.5q0 -45 34 -77z" />
    <glyph glyph-name="less" unicode="&#x3c;" horiz-adv-x="561" 
d="M459 197l-29 -69l-345 142v66l345 143l29 -68l-257 -108zM537 230l-73 -181l-440 181v145l439 183l73 -180l-177 -74q30 -12 90.5 -37.5t87.5 -36.5zM443 98l45 112l-227 94l227 95l-46 110l-380 -158v-96z" />
    <glyph glyph-name="equal" unicode="=" horiz-adv-x="546" 
d="M462 269h-377v65h377v-65zM462 141h-377v65h377v-65zM522 88h-498v298h498v-298zM62 121h422v104h-422v-104zM62 249h422v105h-422v-105z" />
    <glyph glyph-name="greater" unicode="&#x3e;" horiz-adv-x="560" 
d="M130 128l-28 69l256 106l-256 108l28 68l346 -143v-66zM98 49l-74 180l179 75q-37 16 -100.5 42t-78.5 32l73 180l439 -183v-145zM72 210l46 -111l380 156v96l-380 158l-46 -111l227 -94z" />
    <glyph glyph-name="question" unicode="?" horiz-adv-x="528" 
d="M84 615h204q64 0 110 -50t46 -120q0 -75 -49 -122.5t-118 -47.5v-40h-151q-16 32 -16 66q0 55 34.5 96.5t84.5 47.5h-145v170zM300 138q0 -34 -28 -58.5t-66 -24.5q-39 0 -67.5 24.5t-28.5 58.5t28 58.5t67 24.5t67 -24.5t28 -58.5zM337 218v-4q23 -34 23 -76
q0 -62 -45.5 -105t-108.5 -43q-64 0 -110 43t-46 105q0 39 21 73q-21 55 -21 90q0 42 14 79h-40v300h264q89 0 152.5 -69t63.5 -166q0 -86 -46.5 -147t-120.5 -80zM112 210h6q-30 -30 -30 -72q0 -45 35 -76t83 -31t82 31t34 76q0 41 -31 72h9v42q69 11 117.5 64t48.5 129
q0 80 -52.5 137.5t-125.5 57.5h-227v-220h72q-45 -52 -45 -119q0 -40 24 -91z" />
    <glyph glyph-name="at" unicode="@" horiz-adv-x="784" 
d="M529 218l74 -78q-89 -84 -212 -84q-122 0 -211.5 84t-89.5 205t89.5 205t211.5 84q105 0 188.5 -49.5t108.5 -144.5q6 -27 6 -55q0 -66 -40 -115.5t-107 -49.5q-36 0 -65 20q-38 -33 -91 -33q-58 0 -100.5 40.5t-42.5 97.5t42.5 97.5t100.5 40.5q28 0 50 -9h96
q0 -9 -1 -52.5t-1 -59.5q0 -35 16 -35q36 0 36 57q0 38 -18.5 67.5t-49 45t-63 23t-65.5 7.5q-78 0 -136 -52.5t-58 -129.5t58 -129t136 -52q83 0 138 54zM359 343q0 -14 10 -24t24 -10t24 10t10 24t-10 24t-24 10t-24 -10t-10 -24zM653 183l44 -45q-158 -147 -306 -147
q-149 0 -258 103t-109 251t109 251t258 103q81 0 153 -24.5t129 -81t78 -137.5q9 -37 9 -71q0 -62 -28 -117.5t-79 -84.5zM639 139l-58 60q64 12 101 65.5t37 120.5q0 32 -7 60q-28 105 -118 159t-203 54q-132 0 -229 -91t-97 -222t97 -222t229 -91q133 0 248 107z" />
    <glyph glyph-name="A" unicode="A" 
d="M665 65h-187v26h-115v185h115v131q-89 -45 -135.5 -135t-50.5 -207h-200q5 109 37 205.5t89.5 174t150.5 123t209 45.5h87v-548zM454 364v-64h-64q29 39 64 64zM730 0h-317v27h-57q0 -5 -0.5 -14t-0.5 -13h-331q5 107 28 205t68.5 185t108.5 150.5t153 100.5t196 37h152
v-678zM454 40h235v598h-111q-98 0 -181 -32.5t-141 -89t-100 -133t-63.5 -162.5t-25.5 -181h248q3 88 24 153v-126h115v-27z" />
    <glyph glyph-name="B" unicode="B" horiz-adv-x="670" 
d="M301 443h37q4 0 4 -4t-4 -4h-37v8zM301 239h43q7 0 7 -9q0 -8 -7 -8h-43v17zM87 613h300q75 0 128.5 -43.5t53.5 -104.5q0 -73 -69 -117q40 -23 61 -56.5t21 -89.5q0 -60 -44 -98.5t-118 -38.5h-333v548zM277 411h61q13 0 20.5 8.5t7.5 19.5t-7.5 20t-20.5 9h-61v-57z
M277 198h67q15 0 23 9.5t8 22.5t-8 23t-23 10h-67v-65zM24 678h363q101 0 173 -62.5t72 -150.5q0 -62 -36 -112q50 -58 50 -151q0 -88 -61.5 -145t-164.5 -57h-396v678zM63 40h357q85 0 135.5 45.5t50.5 116.5q0 97 -64 148q50 47 50 115q0 72 -60 122.5t-145 50.5h-324
v-598z" />
    <glyph glyph-name="C" unicode="C" horiz-adv-x="612" 
d="M526 234v-170q-56 0 -168 0.5t-168 0.5q-103 119 -103 274q0 158 103 274h336v-170h-223q-26 -50 -26 -104q0 -58 26 -105h223zM588 299v-299h-425q-139 157 -139 339q0 183 138 339h426v-299h-243q-6 -26 -6 -40q0 -18 5 -40h244zM550 40v218h-233q-17 37 -17 81
q0 41 17 80h233v219h-371q-116 -132 -116 -299q0 -162 117 -299h370z" />
    <glyph glyph-name="D" unicode="D" horiz-adv-x="679" 
d="M285 418h33q32 0 55.5 -23t23.5 -56t-23 -57t-54 -24h-35v160zM325 377v-78q13 1 22.5 13t9.5 27q0 14 -9.5 25.5t-22.5 12.5zM88 613h232q112 0 191.5 -80.5t79.5 -193.5t-79 -193.5t-189 -80.5h-235v548zM261 234h59q42 0 71.5 31t29.5 74t-30 73.5t-73 30.5h-57v-209z
M24 678h296q139 0 237 -99.5t98 -239.5t-97.5 -239.5t-234.5 -99.5h-299v678zM64 40h259q120 0 206 88t86 211q0 124 -86.5 211.5t-208.5 87.5h-256v-598z" />
    <glyph glyph-name="E" unicode="E" horiz-adv-x="590" 
d="M431 269h-140v139h140v-139zM505 65h-419v548h419v-170h-239v-209h239v-169zM566 0h-542v678h542v-299h-73v-80h73v-299zM63 40h465v218h-74v161h74v219h-465v-598z" />
    <glyph glyph-name="F" unicode="F" horiz-adv-x="549" 
d="M392 269h-106v139h106v-139zM464 443h-201v-378h-178v548h379v-170zM453 205h-129v-205h-300v678h501v-299h-72v-174zM286 245h129v174h72v219h-425v-598h224v205z" />
    <glyph glyph-name="G" unicode="G" horiz-adv-x="692" 
d="M604 65h-411q-105 116 -105 274t106 274h410v-170h-294q-27 -49 -27 -104q0 -56 27 -105h129v35h-107v140h272v-344zM668 0h-503q-141 157 -141 339q0 186 142 339h502v-678zM182 40h446v598h-445q-119 -132 -119 -299q0 -168 118 -299z" />
    <glyph glyph-name="H" unicode="H" horiz-adv-x="602" 
d="M516 65h-181v281h-66v-281h-183v548h182v-109h66v109h182v-548zM578 0h-554v678h554v-678zM312 40h228v598h-229v-110h-20v110h-228v-598h229v282h20v-282z" />
    <glyph glyph-name="I" unicode="I" horiz-adv-x="283" 
d="M211 65h-140v548h140v-548zM259 0h-235v678h235v-678zM53 40h176v598h-176v-598z" />
    <glyph glyph-name="J" unicode="J" horiz-adv-x="511" 
d="M427 614v-475q-88 -77 -208 -77q-71 0 -136 27v210q54 -38 113 -38q42 0 75 16v337h156zM487 678v-567q-125 -114 -268 -114q-79 0 -195 48v371q128 -91 172 -91h15v353h276zM450 128v509h-202v-343q-22 -9 -52 -9q-50 0 -135 57v-270q82 -35 158 -35q128 0 231 91z" />
    <glyph glyph-name="K" unicode="K" horiz-adv-x="753" 
d="M603 613l-137 -187l129 -361h-200l-64 176l-57 -78v-98h-186v548h186v-148l109 148h220zM729 678l-191 -264l147 -414h-334l-12 33v-33h-315v678h315v-18l12 18h378zM492 421l158 217h-279l-73 -99v99h-234v-598h234v115q5 6 13 18t13 18l55 -151h249q-24 69 -77 216
t-59 165z" />
    <glyph glyph-name="L" unicode="L" horiz-adv-x="471" 
d="M389 65h-307v548h169v-378h138v-170zM447 0h-423v678h285v-379h138v-299zM60 40h350v219h-138v379h-212v-598z" />
    <glyph glyph-name="M" unicode="M" horiz-adv-x="798" 
d="M708 65h-193v189l-116 -216l-114 216v-189h-195v554h192l117 -189l117 189h192v-554zM774 0h-320l-55 -103l-54 103h-321v684h295l80 -129q13 21 40.5 65t39.5 64h295v-684zM490 41h243v602h-231l-103 -165l-102 165h-232v-602h244v113l90 -170l91 169v-112z" />
    <glyph glyph-name="N" unicode="N" horiz-adv-x="752" 
d="M663 65h-187v44q-13 99 -65 178t-134 120v-342h-188v548h91q174 0 295 -105v105h188v-548zM728 0h-317v106q-13 94 -69 165v-271h-318v678h156q130 0 230 -50v50h318v-678zM452 40h235v598h-236v-80q-117 80 -271 80h-115v-598h236v325q60 -40 99.5 -109t51.5 -150v-66z
" />
    <glyph glyph-name="O" unicode="O" horiz-adv-x="828" 
d="M487 334q0 -29 -21 -49.5t-52 -20.5q-30 0 -52 21t-22 49q0 29 22 50t52 21q31 0 52 -21t21 -50zM446 334q0 13 -9 21.5t-23 8.5q-13 0 -22.5 -8.5t-9.5 -21.5q0 -11 9.5 -20t22.5 -9t22.5 9t9.5 20zM738 347q0 -127 -95 -217t-229 -90q-133 0 -228 90t-95 217
q0 126 95 216t228 90t228.5 -90t95.5 -216zM512 334q0 40 -28.5 68t-69.5 28t-69.5 -28t-28.5 -68q0 -39 28.5 -66.5t69.5 -27.5t69.5 27.5t28.5 66.5zM804 347q0 -154 -114.5 -263.5t-275.5 -109.5t-275.5 109.5t-114.5 263.5t114.5 263t275.5 109t275.5 -109t114.5 -263z
M763 347q0 136 -102.5 233t-246.5 97t-246 -96.5t-102 -233.5t102 -234.5t246 -97.5q143 0 246 98t103 234z" />
    <glyph glyph-name="P" unicode="P" horiz-adv-x="714" 
d="M300 416h52q19 0 31.5 -9t12.5 -26t-12.5 -26t-32.5 -9h-51v70zM88 613h268q116 0 192.5 -61.5t76.5 -170.5q0 -110 -76 -171.5t-192 -61.5h-80v-83h-189v548zM276 322h75q30 0 50 15.5t20 43.5t-20 43.5t-49 15.5h-76v-118zM24 678h332q144 0 239 -78.5t95 -218.5
t-94.5 -219t-238.5 -79h-15v-83h-318v678zM301 124h56q127 0 210 67.5t83 189.5q0 121 -83.5 189t-210.5 68h-292v-598h237v84z" />
    <glyph glyph-name="Q" unicode="Q" horiz-adv-x="856" 
d="M487 339q0 -30 -21 -50.5t-52 -20.5q-30 0 -52 20.5t-22 50.5q0 29 22 50t52 21q31 0 52 -21t21 -50zM446 339q0 12 -9.5 21t-22.5 9t-22.5 -9t-9.5 -21t9.5 -21t22.5 -9t22.5 9t9.5 21zM738 138l-146 -146l-67 67q-54 -19 -111 -19q-133 0 -228 91.5t-95 219.5t94.5 219
t228.5 91t229 -91t95 -219q0 -89 -49 -163zM512 339q0 40 -28.5 68t-69.5 28t-69.5 -28t-28.5 -68t28.5 -68t69.5 -28t69.5 28t28.5 68zM832 138l-242 -243l-84 89q-46 -11 -92 -11q-161 0 -275.5 111t-114.5 267t114.5 266.5t275.5 110.5t275.5 -110.5t114.5 -266.5
q0 -81 -33 -151zM591 -44l182 182l-53 53q43 79 43 160q0 138 -102.5 236.5t-246.5 98.5t-246 -98t-102 -237q0 -138 102 -237t246 -99q54 0 104 15z" />
    <glyph glyph-name="R" unicode="R" horiz-adv-x="845" 
d="M307 435h108q26 0 26 -19t-26 -19h-108v38zM727 130l-142 -132l-191 207h-112v-139h-192v560h341q105 0 174.5 -55.5t69.5 -154.5q0 -96 -70 -155zM282 372h133q22 0 36 11.5t14 32.5q0 20 -14 31.5t-36 11.5h-133v-87zM821 126l-239 -221l-216 234h-18v-139h-324v692
h407q133 0 221.5 -73t88.5 -203q0 -91 -45 -155zM585 -36l177 164l-122 131q60 63 60 157q0 111 -76.5 173t-192.5 62h-365v-610h241v139h77z" />
    <glyph glyph-name="S" unicode="S" horiz-adv-x="536" 
d="M452 443h-158q57 -24 94 -94.5t37 -151.5q0 -70 -31 -132h-310v169h161q-58 25 -96 95.5t-38 151.5q0 75 31 132h310v-170zM512 379h-71q45 -90 45 -182q0 -86 -57 -197h-405v299h72q-46 89 -46 182q0 92 58 197h404v-299zM367 419h107v219h-345q-41 -77 -41 -157
q0 -141 84 -223h-110v-218h345q41 82 41 157q0 60 -22.5 120.5t-58.5 101.5z" />
    <glyph glyph-name="T" unicode="T" horiz-adv-x="543" 
d="M459 443h-99v-377h-176v377h-99v170h374v-170zM519 379h-98v-379h-298v379h-99v299h495v-299zM383 419h98v218h-419v-218h99v-379h222v379z" />
    <glyph glyph-name="U" unicode="U" horiz-adv-x="601" 
d="M515 617v-347q0 -93 -63 -159t-151 -66t-151.5 66t-63.5 159v347h179v-337q0 -16 10.5 -26.5t25.5 -10.5t25 10.5t10 26.5v337h179zM577 683v-413q0 -120 -81 -205t-195 -85t-195.5 85t-81.5 205v413h553zM539 270v372h-226v-362q0 -13 -12 -13q-13 0 -13 13v362h-225
v-372q0 -103 70.5 -176.5t167.5 -73.5q98 0 168 73.5t70 176.5z" />
    <glyph glyph-name="V" unicode="V" horiz-adv-x="609" 
d="M511 613l-106 -549h-201l-105 549h180l25 -253l27 253h180zM585 678l-130 -678h-301l-130 678h561zM424 41l114 597h-227l-6 -52l-4 52h-230l114 -597h239z" />
    <glyph glyph-name="W" unicode="W" horiz-adv-x="949" 
d="M841 613l-122 -548h-201l-43 149l-44 -149h-201l-122 548h204l28 -236l47 236h175l46 -236l29 236h204zM925 678l-152 -678h-598l-151 678h901zM739 40l133 598h-258l-12 -98l-19 98h-217l-19 -99l-12 99h-258l132 -598h241q3 9 11 38.5t14 46.5l24 -85h240z" />
    <glyph glyph-name="X" unicode="X" horiz-adv-x="725" 
d="M599 65h-210l-27 56l-28 -56h-210l132 281l-125 267h209l22 -43l19 43h211l-125 -267zM701 0h-677l162 346l-155 332h662l-156 -333q151 -317 164 -345zM374 40h263q-17 37 -68.5 146t-75.5 160l137 292h-264l-5 -13l-6 13h-261q3 -6 136 -292l-144 -306h263l13 26z" />
    <glyph glyph-name="Y" unicode="Y" horiz-adv-x="821" 
d="M680 613l-176 -284v-265h-189v265l-176 284h207l64 -112l63 112h207zM797 678l-229 -365v-313h-317v313q-140 222 -227 365h362l23 -44l26 44h362zM528 325l196 313h-266l-48 -88l-50 88h-264q41 -68 195 -315v-282h237v284z" />
    <glyph glyph-name="Z" unicode="Z" horiz-adv-x="730" 
d="M606 65h-477l194 378h-200v170h478l-195 -379h200v-169zM670 0h-646l194 378h-158v300h646l-195 -379h159v-299zM89 40h541v218h-185l195 380h-541v-220h185z" />
    <glyph glyph-name="bracketleft" unicode="[" horiz-adv-x="268" 
d="M198 -39h-127v684h127v-85h-26v-515h26v-84zM244 -106h-220v818h220v-219h-25v-381h25v-218zM53 -64h162v134h-25v465h25v135h-162v-734z" />
    <glyph glyph-name="backslash" unicode="\" horiz-adv-x="651" 
d="M364 -29l-248 661h163l256 -661h-171zM322 -96l-298 794h297l306 -794h-305zM81 657l268 -711h220l-275 711h-213z" />
    <glyph glyph-name="bracketright" unicode="]" horiz-adv-x="268" 
d="M198 -39h-127v84h25v515h-25v85h127v-684zM244 -106h-220v218h26v381h-26v219h220v-818zM53 -64h162v734h-162v-135h26v-465h-26v-134z" />
    <glyph glyph-name="asciicircum" unicode="^" horiz-adv-x="556" 
d="M451 278l-65 -34l-108 189l-108 -189l-66 34l144 252h60zM532 255l-169 -89l-85 149l-85 -149l-169 89l189 333h130zM377 215l104 54l-161 283h-85l-160 -283l104 -54l99 174z" />
    <glyph glyph-name="underscore" unicode="_" horiz-adv-x="440" 
d="M440 -74h-440v65h440v-65z" />
    <glyph glyph-name="grave" unicode="`" horiz-adv-x="407" 
d="M383 595h-141l-218 181h229z" />
    <glyph glyph-name="a" unicode="a" horiz-adv-x="634" 
d="M547 62h-149v21h-91v148h91v105q-72 -35 -109 -107.5t-40 -166.5h-160q4 87 29.5 164.5t71.5 139.5t120 98.5t167 36.5h70v-439zM374 294v-39h-38q18 23 38 39zM610 0h-275v21h-24v-21h-287q4 89 23 170t56.5 153t89 125t124.5 84t160 31h133v-563zM374 39h196v485h-93
q-98 0 -176.5 -40t-128 -109t-76.5 -154.5t-31 -181.5h207q2 56 11 96v-75h91v-21z" />
    <glyph glyph-name="b" unicode="b" horiz-adv-x="564" 
d="M85 501h239q60 0 102.5 -35t42.5 -84q0 -57 -55 -94q65 -38 65 -116q0 -48 -35 -79t-94 -31h-265v439zM236 339h49q10 0 16 7t6 16q0 23 -22 23h-49v-46zM236 168h53q12 0 19.5 8t7.5 19q0 10 -7 17.5t-19 7.5h-54v-52zM24 563h300q85 0 145.5 -53t60.5 -128
q0 -48 -26 -89q36 -43 36 -121q0 -76 -51.5 -124t-138.5 -48h-326v563zM62 39h288q70 0 111 37.5t41 95.5q0 76 -50 118q40 37 40 92q0 59 -49.5 100.5t-118.5 41.5h-262v-485z" />
    <glyph glyph-name="c" unicode="c" horiz-adv-x="515" 
d="M431 62h-266q-81 94 -81 220q0 125 81 219h266v-136h-176q-20 -38 -20 -83q0 -46 20 -84h176v-136zM491 0h-352q-115 131 -115 282q0 150 115 281h352v-260h-195q-2 -7 -2 -21q0 -12 3 -22h194v-260zM156 39h298v182h-186q-11 33 -11 61q0 29 13 60h184v182h-298
q-95 -106 -95 -242q0 -137 95 -243z" />
    <glyph glyph-name="d" unicode="d" horiz-adv-x="572" 
d="M246 341h24q25 0 41.5 -18t16.5 -41q0 -26 -17 -43.5t-42 -17.5h-23v120zM285 295v-28q5 7 5 15q0 6 -5 13zM86 501h185q89 0 152.5 -64.5t63.5 -154.5q0 -89 -63.5 -154.5t-151.5 -65.5h-186v439zM223 198h46q34 0 58 24.5t24 59.5q0 33 -23 57.5t-58 24.5h-47v-166z
M24 563h247q115 0 196 -82.5t81 -198.5q0 -115 -81.5 -198.5t-194.5 -83.5h-248v563zM63 39h209q98 0 168 72t70 171t-70 170.5t-169 71.5h-208v-485z" />
    <glyph glyph-name="e" unicode="e" horiz-adv-x="498" 
d="M357 226h-112v110h112v-110zM415 62h-332v439h332v-136h-190v-167h190v-136zM474 0h-450v563h450v-260h-58v-43h58v-260zM61 39h376v182h-58v121h58v182h-376v-485z" />
    <glyph glyph-name="f" unicode="f" horiz-adv-x="465" 
d="M326 226h-85v110h85v-110zM383 365h-161v-303h-141v439h302v-136zM383 164h-103v-164h-256v563h417v-260h-58v-139zM244 202h103v140h57v182h-344v-485h184v163z" />
    <glyph glyph-name="g" unicode="g" horiz-adv-x="583" 
d="M498 62h-328q-84 94 -84 220q0 125 84 219h328v-136h-235q-22 -39 -22 -83q0 -45 22 -84h102v27h-84v112h217v-275zM559 0h-416q-119 130 -119 282q0 148 119 281h416v-563zM160 39h361v485h-361q-97 -108 -97 -242q0 -137 97 -243z" />
    <glyph glyph-name="h" unicode="h" horiz-adv-x="507" 
d="M424 62h-144v225h-53v-225h-144v439h144v-88h53v88h144v-439zM483 0h-459v563h459v-563zM257 39h189v485h-189v-87h-8v87h-188v-485h188v225h8v-225z" />
    <glyph glyph-name="i" unicode="i" horiz-adv-x="242" 
d="M174 62h-106v439h106v-439zM218 0h-194v563h194v-563zM51 39h139v485h-139v-485z" />
    <glyph glyph-name="j" unicode="j" horiz-adv-x="432" 
d="M352 501v-380q-73 -62 -164 -62q-51 0 -107 23v167q43 -30 89 -30q30 0 58 13v269h124zM408 563v-469q-107 -97 -220 -97q-66 0 -164 41v322q115 -79 148 -79v282h236zM373 110v414h-166v-276q-16 -5 -37 -5q-40 0 -110 47v-224q69 -30 128 -30q100 0 185 74z" />
    <glyph glyph-name="k" unicode="k" horiz-adv-x="644" 
d="M498 501l-110 -151l104 -288h-161l-50 141l-46 -62v-79h-149v439h148v-119l87 119h177zM620 563l-164 -222l123 -341h-555v563h596zM413 347l131 177h-234l-52 -72v72h-195v-485h195v95l16 21l42 -116h209z" />
    <glyph glyph-name="l" unicode="l" horiz-adv-x="400" 
d="M321 62h-242v439h133v-303h109v-136zM376 0h-352v563h243v-303h109v-260zM58 39h284v182h-110v303h-174v-485z" />
    <glyph glyph-name="m" unicode="m" horiz-adv-x="672" 
d="M584 63h-156v150l-92 -172l-92 172v-150h-157v443h154l94 -151l94 151h155v-443zM648 0h-262l-50 -95l-51 95h-261v569h253l58 -94l58 94h255v-569zM404 39h204v491h-193q-12 -20 -39.5 -64t-40.5 -65l-80 129h-191v-491h204v77l68 -127l68 128v-78z" />
    <glyph glyph-name="n" unicode="n" horiz-adv-x="631" 
d="M544 62h-149q0 99 -44 168.5t-116 105.5v-274h-149v439h70q139 0 239 -84v84h149v-439zM607 0h-275q0 139 -34 196v-196h-274v563h132q91 0 176 -34v34h275v-563zM371 39h196v485h-196v-60q-96 60 -215 60h-93v-485h196v255q112 -78 112 -255z" />
    <glyph glyph-name="o" unicode="o" horiz-adv-x="695" 
d="M402 279q0 -22 -16 -37.5t-38 -15.5q-23 0 -39.5 15.5t-16.5 37.5q0 21 16.5 36.5t39.5 15.5q22 0 38 -15.5t16 -36.5zM362 279q0 12 -14 12q-16 0 -16 -12q0 -13 16 -13q14 0 14 13zM607 287q0 -100 -76 -172t-183 -72q-108 0 -184 71.5t-76 172.5q0 102 76 174t184 72
q107 0 183 -72t76 -174zM426 279q0 31 -23 53.5t-55 22.5q-33 0 -56.5 -22.5t-23.5 -53.5q0 -32 23.5 -54.5t56.5 -22.5q32 0 55 22.5t23 54.5zM671 287q0 -127 -95 -217.5t-228 -90.5q-134 0 -229 90.5t-95 217.5q0 128 95 218.5t229 90.5q133 0 228 -90.5t95 -218.5z
M631 287q0 112 -83.5 191t-199.5 79q-118 0 -201 -79t-83 -191q0 -110 83.5 -189t200.5 -79q116 0 199.5 79.5t83.5 188.5z" />
    <glyph glyph-name="p" unicode="p" horiz-adv-x="600" 
d="M259 339h38q13 0 22 -6.5t9 -17.5t-9 -17.5t-22 -6.5h-38v48zM86 501h214q93 0 153.5 -49t60.5 -137t-60.5 -137.5t-153.5 -49.5h-64v-66h-150v439zM236 268h61q24 0 39.5 12.5t15.5 34.5t-16 34.5t-39 12.5h-61v-94zM24 563h276q120 0 198 -65.5t78 -182.5t-78.5 -183
t-199.5 -66v-66h-274v563zM259 105h41q103 0 170.5 55.5t67.5 154.5t-67.5 154t-170.5 55h-237v-485h196v66z" />
    <glyph glyph-name="q" unicode="q" horiz-adv-x="723" 
d="M402 283q0 -22 -16 -37.5t-39 -15.5t-39 15.5t-16 37.5t16 37.5t39 15.5t39 -15.5t16 -37.5zM362 283q0 13 -15 13t-15 -13t15 -13t15 13zM608 122l-118 -118l-53 55q-42 -15 -90 -15q-107 0 -183 73t-76 175q0 103 76 176t183 73t183.5 -73t76.5 -176q0 -70 -39 -130z
M426 283q0 32 -23 54.5t-56 22.5q-32 0 -55.5 -22.5t-23.5 -54.5t23.5 -54.5t55.5 -22.5q33 0 56 22.5t23 54.5zM699 122l-210 -209l-71 73q-32 -7 -71 -7q-133 0 -228 92t-95 221q0 130 95 222t228 92q134 0 229 -92t95 -222q0 -56 -24 -118zM490 -30l151 152l-43 43
q33 55 33 127q0 113 -83.5 193t-200.5 80t-200 -80t-83 -193q0 -112 83 -192.5t200 -80.5q35 0 83 12z" />
    <glyph glyph-name="r" unicode="r" horiz-adv-x="714" 
d="M265 355h83q16 0 16 -11t-16 -11h-83v22zM599 115l-114 -105l-154 165h-90v-111h-153v449h272q85 0 140.5 -44.5t55.5 -124.5t-56 -125zM241 309h107q40 0 40 35t-40 35h-107v-70zM690 112l-208 -193l-177 190v-109h-281v577h336q112 0 186 -62t74 -171q0 -71 -33 -123z
M484 -24l149 138l-98 105q45 48 45 125q0 91 -63 142t-157 51h-296v-497h201v112h56z" />
    <glyph glyph-name="s" unicode="s" horiz-adv-x="454" 
d="M373 365h-126q45 -19 75 -75.5t30 -121.5q0 -58 -25 -106h-245v136h128q-46 20 -76.5 76t-30.5 122q0 59 25 105h245v-136zM430 303h-50q30 -68 30 -135q0 -75 -49 -168h-337v260h51q-30 68 -30 136q0 76 50 167h335v-260zM314 342h81v182h-279q-35 -62 -35 -128
q0 -101 62 -175h-83v-182h280q34 62 34 129q0 103 -60 174z" />
    <glyph glyph-name="t" unicode="t" horiz-adv-x="459" 
d="M377 365h-78v-302h-140v302h-78v136h296v-136zM435 303h-78v-303h-256v303h-77v260h411v-260zM321 342h78v182h-339v-182h77v-303h184v303z" />
    <glyph glyph-name="u" unicode="u" horiz-adv-x="507" 
d="M424 505v-278q0 -74 -50.5 -127t-119.5 -53q-71 0 -121 53t-50 127v278h142v-270q0 -13 8 -21.5t20 -8.5t19.5 8.5t7.5 21.5v270h144zM483 567v-340q0 -100 -67.5 -171.5t-161.5 -71.5q-95 0 -162.5 71.5t-67.5 171.5v340h459zM446 227v301h-188v-293q0 -7 -5 -7
q-6 0 -6 7v293h-186v-301q0 -84 56.5 -143.5t136.5 -59.5q78 0 135 59.5t57 143.5z" />
    <glyph glyph-name="v" unicode="v" horiz-adv-x="516" 
d="M421 501l-82 -439h-161l-82 439h142l21 -203l21 203h141zM492 563l-106 -563h-256l-106 563h468zM356 39l91 485h-187l-1 -12l-1 12h-189l91 -485h196z" />
    <glyph glyph-name="w" unicode="w" horiz-adv-x="800" 
d="M695 501l-98 -439h-161l-35 119l-36 -119h-161l-99 439h164l23 -190l37 190h141l37 -190l23 190h165zM776 563l-126 -563h-500l-126 563h752zM617 39l108 485h-217l-7 -58l-11 58h-181l-11 -58l-8 58h-216l110 -485h200q1 4 7 24.5t10 32.5l16 -57h200z" />
    <glyph glyph-name="x" unicode="x" horiz-adv-x="621" 
d="M499 62h-168l-21 45l-22 -45h-168l106 225l-101 214h168l16 -35l16 35h169l-101 -214zM597 0h-573l134 287l-130 276h562l-130 -275zM324 39h212l-118 249l113 236h-220l-3 -5l-1 5h-218l112 -237l-118 -248h219l8 16z" />
    <glyph glyph-name="y" unicode="y" horiz-adv-x="702" 
d="M566 501l-140 -227v-212h-151v212l-140 227h165l50 -90l51 90h165zM678 563l-190 -306v-257h-275v257l-189 306h312l14 -25l14 25h314zM449 267l159 257h-221l-37 -65l-36 65h-221q20 -33 48 -78.5t62 -99.5t49 -79v-228h197v228z" />
    <glyph glyph-name="z" unicode="z" horiz-adv-x="624" 
d="M503 62h-380l155 302h-159v137h380l-155 -303h159v-136zM564 0h-540l153 302h-119v261h542l-156 -303h120v-260zM86 39h440v182h-143l154 303h-441v-183h144z" />
    <glyph glyph-name="braceleft" unicode="{" horiz-adv-x="338" 
d="M263 -71h-61q-37 0 -64 34t-27 82v181h-35v121h35v180q0 49 27 83t64 34h61v-121h-40v-181q0 -30 -12 -56q12 -24 12 -55v-181h40v-121zM314 -138h-112q-57 0 -100 53.5t-43 129.5v114h-35v255h35v113q0 77 43 130.5t100 53.5h112v-255h-40v-114q0 -28 -6 -56
q6 -22 6 -55v-114h40v-255zM202 -96h80v171h-40v156q0 26 -9 55q9 27 9 56v156h40v171h-80q-44 0 -77.5 -41t-33.5 -101v-155h-34v-171h34v-156q0 -58 33.5 -99.5t77.5 -41.5z" />
    <glyph glyph-name="bar" unicode="|" horiz-adv-x="148" 
d="M93 -81h-38v744h38v-744zM124 -149h-100v880h100v-880zM43 -107h62v796h-62v-796z" />
    <glyph glyph-name="braceright" unicode="}" horiz-adv-x="338" 
d="M136 -71h-60v121h40v181q0 30 11 55q-11 27 -11 56v181h-40v121h60q37 0 64.5 -34t27.5 -83v-180h35v-121h-35v-181q0 -48 -27.5 -82t-64.5 -34zM136 -138h-112v255h40v114q0 23 7 55q-7 25 -7 56v114h-40v255h112q58 0 101 -53.5t43 -130.5v-113h34v-255h-34v-114
q0 -76 -43 -129.5t-101 -53.5zM57 -96h79q45 0 78 41t33 100v156h35v171h-35v155q0 60 -33 101t-78 41h-79v-171h39v-156q0 -26 10 -56q-10 -28 -10 -55v-156h-39v-171z" />
    <glyph glyph-name="asciitilde" unicode="~" horiz-adv-x="381" 
 />
    <glyph glyph-name="nbspace" unicode="&#xa0;" horiz-adv-x="300" 
 />
    <glyph glyph-name="exclamdown" unicode="&#xa1;" horiz-adv-x="333" 
d="M80 -75l26 383h122l26 -383h-174zM87 404q0 34 24 58t56 24q34 0 58.5 -24t24.5 -58q0 -33 -24 -57t-57 -24q-34 0 -58 24t-24 57zM24 -140l32 467q-20 38 -20 78q0 61 38.5 104.5t91.5 43.5q54 0 93 -43.5t39 -104.5q0 -41 -20 -78l31 -467h-285zM245 332h-5
q26 31 26 73q0 44 -29.5 76t-70.5 32q-40 0 -69 -32t-29 -76q0 -42 26 -73h-6l-29 -431h215z" />
    <glyph glyph-name="cent" unicode="&#xa2;" horiz-adv-x="475" 
d="M392 151h-69v-86h-143v86h-33q-65 80 -65 188q0 109 65 188h33v86h143v-86h69v-139h-144q-12 -21 -12 -49q0 -26 12 -50h144v-138zM451 87h-69v-87h-260v87q-98 120 -98 252q0 134 98 252v87h260v-87h69v-504zM345 127h69v186h-152q-4 16 -4 26q0 16 4 25h152v187h-69v87
h-187v-87h-20q-78 -95 -78 -212q0 -115 78 -212h20v-87h187v87z" />
    <glyph glyph-name="sterling" unicode="&#xa3;" horiz-adv-x="495" 
d="M391 235l-48 -170h-233v215h-28v79h27v195q86 75 202 75h17l33 -202q-20 2 -30 2q-39 0 -69 -15v-55h51v-79h-51v-45h129zM471 300l-85 -300h-334v215h-28v209h27v162q124 108 260 108h65l57 -345l-62 10v-59h100zM359 41l62 218h-86v125h-51v13q18 8 47 8q7 0 57 -8
l-42 256h-35q-125 0 -223 -87v-182h-28v-129h28v-214h271z" />
    <glyph glyph-name="currency" unicode="&#xa4;" horiz-adv-x="628" 
d="M524 614l-67 -197q-5 1 -13 1q-31 0 -54 -17h61l-16 -49h-77q-3 -10 -3 -22h73l-16 -48h-42q27 -40 72 -40q32 0 60 23v-202q-35 -7 -59 -7q-99 0 -179 63t-101 163h-52l17 48h28v22h-45l16 49h35q22 100 101.5 162t178.5 62q45 0 82 -11zM604 659l-104 -311l64 55v-395
q-88 -17 -121 -17q-107 0 -197 61.5t-129 163.5h-93l24 71h-24l59 179h33q39 102 129.5 163t196.5 61q45 0 162 -31zM431 267l123 364q-64 18 -112 18q-102 0 -185.5 -61t-112.5 -162h-33l-32 -98h23l-23 -71h66q28 -101 112 -163t186 -62q29 0 82 11v274q-59 -51 -83 -51
q-8 0 -11 1z" />
    <glyph glyph-name="yen" unicode="&#xa5;" horiz-adv-x="823" 
d="M682 613l-130 -210h72v-49h-102l-15 -21h117v-50h-118v-218h-189v218h-118v50h117l-13 21h-104v49h73l-131 210h207l64 -112l63 112h207zM799 678l-130 -210h20v-250h-119v-218h-317v218h-119v250h21l-131 210h364l23 -44l26 44h362zM595 427l131 211h-266l-48 -88
l-50 88h-264l131 -211h-54v-168h118v-219h237v219h118v168h-53z" />
    <glyph glyph-name="brokenbar" unicode="&#xa6;" horiz-adv-x="149" 
d="M94 329h-39v295h39v-295zM94 -71h-39v295h39v-295zM125 -138h-101v829h101v-829zM44 304h62v345h-62v-345zM44 -96h62v345h-62v-345z" />
    <glyph glyph-name="section" unicode="&#xa7;" horiz-adv-x="2170" 
d="M27 750h128v-750h-128v750zM2020 750h122v-750h-122v750zM1249 468q15 40 40.5 74t60 58.5t76 38t86.5 13.5t86.5 -13.5t76 -38t60 -58.5t40.5 -74h123q-12 50 -36.5 94.5t-59 81t-77 63.5t-91.5 43h-244q-49 -16 -91.5 -43t-77 -63.5t-59 -81t-36.5 -94.5h123zM1775 276
q-15 -40 -40.5 -74t-60 -58.5t-76 -38t-86.5 -13.5t-86.5 13.5t-76 38t-60 58.5t-40.5 74h-123q24 -96 89.5 -168.5t156.5 -107.5h281q91 35 156 107.5t89 168.5h-123zM923 276q-15 -40 -41 -74t-60.5 -58.5t-76 -38t-86.5 -13.5t-86 13.5t-75.5 38t-60.5 58.5t-41 74h-122
q12 -48 34.5 -90.5t54 -78t71.5 -63t85 -44.5h281q45 17 85 44.5t71.5 63t54 78t34.5 90.5h-122zM397 468q15 40 40.5 74t60 58.5t75.5 38t86 13.5t86.5 -13.5t76 -38t60 -58.5t40.5 -74h123q-12 50 -36.5 94.5t-59 81t-77 63.5t-90.5 43h-245q-48 -16 -90.5 -43t-77 -63.5
t-59 -81t-36.5 -94.5h123zM274 448h95v-30h-56v-33h50v-32h-51v-58h-38v153zM1006 448h44l71 -102v102h38v-153h-35l-81 104v-104h-37v153zM1457 448h115v-38h-32v-115h-51v116h-32v37zM662 456q-14 0 -29.5 -4t-28.5 -14t-22 -28t-9 -46t12.5 -44t27.5 -24q18 -10 41 -12
q24 2 43 12q17 8 30.5 25t13.5 49t-12.5 49t-27.5 25q-18 10 -39 12zM655 322q-12 2 -22 7q-8 5 -14.5 13.5t-6.5 24.5q0 15 4.5 25t11.5 16t15.5 8t15.5 2q11 -1 21 -6q8 -5 15 -15t7 -27q0 -18 -7.5 -27.5t-16.5 -14.5q-11 -5 -23 -6zM1790 333q8 -4 18.5 -7t23.5 -3
q10 0 17.5 3t7.5 12q0 10 -11.5 14t-25 8.5t-24.5 13.5t-11 30q0 13 6 22t15.5 14.5t21.5 7.5t23 2q24 0 39 -6l-3 -31q-14 7 -33 7q-8 0 -17.5 -2t-9.5 -12q0 -9 11 -12.5t24.5 -8t24.5 -13t11 -29.5q0 -29 -20 -39t-46 -10q-11 0 -23 1t-23 5z" />
    <glyph glyph-name="dieresis" unicode="&#xa8;" horiz-adv-x="380" 
d="M356 651q0 -30 -23 -51.5t-54 -21.5q-30 0 -52 22t-22 51t22.5 49t52.5 20q31 0 53.5 -19t22.5 -50zM174 652q0 -30 -23 -51.5t-53 -21.5t-52 21.5t-22 51.5q0 29 22.5 49t52.5 20q31 0 53 -19t22 -50z" />
    <glyph glyph-name="copyright" unicode="&#xa9;" horiz-adv-x="699" 
d="M482 227l24 -15q-58 -95 -157 -95q-82 0 -137 54t-55 135q0 82 54.5 135.5t137.5 53.5q37 0 69 -14t34 -14q15 0 22 27h22v-145h-22q-29 117 -112 117q-90 0 -90 -154q0 -78 25.5 -119.5t72.5 -41.5q62 0 112 76zM675 309q0 -135 -95.5 -230.5t-230.5 -95.5t-230 95
t-95 231q0 135 95.5 230.5t230.5 95.5t230 -95.5t95 -230.5zM621 309q0 113 -79.5 193t-192.5 80t-192.5 -80t-79.5 -193t79.5 -192.5t192.5 -79.5q112 0 192 80t80 192z" />
    <glyph glyph-name="ordfeminine" unicode="&#xaa;" horiz-adv-x="400" 
d="M321 394h-78v11h-48v78h48v54q-75 -37 -78 -143h-84q4 97 56 163t147 66h37v-229zM376 340h-352q4 92 31.5 166t87 123t141.5 49h92v-338zM222 373h120v271h-58q-105 0 -162.5 -78.5t-61.5 -192.5h125v12h37v-12z" />
    <glyph glyph-name="guillemotleft" unicode="&#xab;" horiz-adv-x="496" 
d="M384 162h-115l-56 128l56 133h115l-57 -133zM257 162h-115l-56 128l56 133h115l-57 -133zM472 106h-367l-81 183l79 190h367l-80 -189zM128 141h289l-66 149l65 154h-289l-65 -155z" />
    <glyph glyph-name="logicalnot" unicode="&#xac;" horiz-adv-x="501" 
d="M418 128h-75v98h-260v62h335v-160zM477 79h-193v97h-260v162h453v-259zM321 109h119v198h-379v-100h260v-98z" />
    <glyph glyph-name="sfthyphen" unicode="&#xad;" horiz-adv-x="280" 
d="M209 179h-137v96h137v-96zM256 136h-232v181h232v-181zM54 163h173v128h-173v-128z" />
    <glyph glyph-name="registered" unicode="&#xae;" horiz-adv-x="308" 
d="M223 516h10q0 -38 -32 -38q-18 0 -26 11t-7.5 24t-4.5 24t-18 11v-42q0 -7 2 -9.5t11 -4.5v-11h-69v11q15 0 15 14v92q0 13 -15 14v10h70q26 0 41.5 -9.5t15.5 -23.5q0 -31 -47 -37q40 -6 40 -41v-8q0 -10 6 -10q8 0 8 23zM145 603v-44q30 0 30 28q0 25 -19 25
q-11 0 -11 -9zM284 551q0 -54 -38 -92.5t-92 -38.5q-56 0 -93 38.5t-37 92.5q0 53 37.5 91t92.5 38q53 0 91.5 -37.5t38.5 -91.5zM263 551q0 44 -31.5 76.5t-77.5 32.5q-44 0 -76.5 -32.5t-32.5 -76.5q0 -46 32 -78t77 -32q46 0 77.5 33t31.5 77z" />
    <glyph glyph-name="degree" unicode="&#xb0;" horiz-adv-x="241" 
d="M173 583q0 -22 -15.5 -37.5t-36.5 -15.5q-23 0 -38.5 15.5t-15.5 37.5q0 21 16 36.5t38 15.5q21 0 36.5 -15.5t15.5 -36.5zM152 583q0 12 -9.5 21.5t-21.5 9.5q-14 0 -23 -9.5t-9 -21.5q0 -14 9 -23t23 -9q12 0 21.5 9.5t9.5 22.5zM217 583q0 -40 -28.5 -68.5
t-67.5 -28.5q-41 0 -69 28t-28 69q0 39 28 67.5t69 28.5q38 0 67 -28.5t29 -67.5zM189 583q0 28 -20 48.5t-48 20.5q-29 0 -49.5 -20.5t-20.5 -48.5q0 -29 20.5 -49t49.5 -20q28 0 48 20t20 49z" />
    <glyph glyph-name="plusminus" unicode="&#xb1;" horiz-adv-x="546" 
d="M462 297h-150v-128h-77v128h-150v78h150v128h77v-128h150v-78zM462 61h-377v79h377v-79zM522 -2h-498v204h151v33h-151v203h151v127h197v-127h150v-203h-150v-33h150v-204zM62 37h422v126h-150v111h150v125h-150v127h-121v-127h-151v-125h151v-111h-151v-126z" />
    <glyph glyph-name="twosuperior" unicode="&#xb2;" horiz-adv-x="280" 
d="M209 397h-131q-6 17 -6 39q0 36 18 71t44 49h-59v71h59q31 0 52.5 -24.5t21.5 -59.5q0 -51 -40 -75h41v-71zM256 342h-209q-23 66 -23 94q0 29 12 65h-8v180h106q50 0 85.5 -40t35.5 -98q0 -13 1 -201zM66 376h161v112h-14q13 30 13 55q0 43 -27 73.5t-65 30.5h-76v-112
h28q-32 -45 -32 -99q0 -22 12 -60z" />
    <glyph glyph-name="threesuperior" unicode="&#xb3;" horiz-adv-x="307" 
d="M73 624h85q29 0 50 -18t21 -43q0 -32 -27 -49q31 -20 31 -62q0 -25 -16.5 -41t-45.5 -16h-98v71h57q9 0 9 11q0 10 -9 10h-57v45h56q7 0 7 9t-7 9h-56v74zM24 679h134q50 0 85.5 -34t35.5 -82q0 -26 -10 -46q14 -24 14 -65q0 -49 -30 -80t-82 -31h-147v338zM55 375h116
q37 0 59 21.5t22 55.5q0 40 -20 63q16 20 16 48q0 33 -26.5 57.5t-63.5 24.5h-103v-270z" />
    <glyph glyph-name="acute" unicode="&#xb4;" horiz-adv-x="407" 
d="M383 770l-218 -181h-141l130 181h229z" />
    <glyph glyph-name="paragraph" unicode="&#xb6;" horiz-adv-x="558" 
d="M473 513h-62v-564h-77v564h-32v-564h-77v295q-59 9 -99.5 59t-40.5 116q0 73 48 125t114 52h226v-83zM534 446h-62v-564h-308v312q-62 28 -101 89t-39 136q0 100 65.5 171.5t157.5 71.5h287v-216zM434 488h62v133h-249q-75 0 -130 -60t-55 -142q0 -66 40.5 -121.5
t99.5 -74.5v-299h232v564z" />
    <glyph glyph-name="periodcentered" unicode="&#xb7;" horiz-adv-x="301" 
d="M228 237q0 -24 -22.5 -41t-54.5 -17t-55 17t-23 41q0 23 23 40t55 17q31 0 54 -17t23 -40zM277 237q0 -43 -37 -72.5t-89 -29.5q-53 0 -90 29.5t-37 72.5t37 72.5t90 29.5q52 0 89 -29.5t37 -72.5zM246 237q0 31 -28 52t-67 21q-41 0 -69 -21t-28 -52t28.5 -52.5
t68.5 -21.5q39 0 67 21.5t28 52.5z" />
    <glyph glyph-name="cedilla" unicode="&#xb8;" horiz-adv-x="297" 
d="M117 -82l-57 55q29 27 67 27t66 -27.5t28 -64.5q0 -35 -27 -64q-30 -27 -67 -27q-40 0 -67 27l57 55q3 -5 10 -5q5 0 9.5 4t4.5 10t-4.5 10.5t-9.5 4.5q-7 0 -10 -5z" />
    <glyph glyph-name="onesuperior" unicode="&#xb9;" horiz-adv-x="195" 
d="M132 395h-56v159h-14v70h70v-229zM171 341h-133v159h-14v179h147v-338zM62 375h85v270h-99v-111h14v-159z" />
    <glyph glyph-name="ordmasculine" unicode="&#xba;" horiz-adv-x="436" 
d="M356 508q0 -53 -40.5 -91t-97.5 -38q-56 0 -96.5 38t-40.5 91t40.5 91t96.5 38q57 0 97.5 -38t40.5 -91zM260 503q0 17 -12 28.5t-30 11.5q-17 0 -29 -12t-12 -28q0 -17 12.5 -29t28.5 -12q18 0 30 12t12 29zM412 508q0 -77 -57 -131t-137 -54t-137 54t-57 131t57 131
t137 54t137 -54t57 -131zM377 508q0 62 -46.5 106t-112.5 44q-65 0 -111.5 -44t-46.5 -106t46.5 -106t111.5 -44q66 0 112.5 44t46.5 106z" />
    <glyph glyph-name="guillemotright" unicode="&#xbb;" horiz-adv-x="495" 
d="M226 162h-115l57 128l-57 133h116l55 -133zM353 162h-114l56 128l-57 133h115l56 -133zM390 106h-366l81 184q-45 104 -80 189h367l79 -190zM78 141h289l66 148l-65 155h-289q38 -87 65 -154z" />
    <glyph glyph-name="onequarter" unicode="&#xbc;" horiz-adv-x="850" 
d="M659 614l-384 -549h-125l385 549h124zM274 269h-122v238h-31v107h153v-345zM760 65h-122v68h-180l73 278h126l-49 -177h30v92h122v-261zM826 0h-254v68h-199l9 37l-73 -105h-285l143 205h-81v238h-32v235h286v-227l160 227h284l-142 -202h101l-24 -85h107v-391zM613 40
h172v310h-119l24 85h-126l142 203h-185l-222 -318v318h-203v-155h31v-238h119l-144 -205h186l194 277l-55 -209h186v-68z" />
    <glyph glyph-name="onehalf" unicode="&#xbd;" horiz-adv-x="855" 
d="M660 614l-386 -549h-125l385 549h126zM271 270h-122v238h-31v107h153v-345zM765 67h-232q-11 31 -11 60q0 53 32 105t77 73h-103v107h103q54 0 92.5 -37t38.5 -88q0 -37 -19 -67.5t-51 -45.5h73v-107zM831 2h-343q-33 82 -33 125q0 57 29 113h-7l-168 -240h-285l143 205
h-84v238h-32v237h287v-232l161 230h287l-143 -202q78 -5 132 -59.5t54 -129.5q0 -20 -6 -48h8v-237zM516 43h274v155h-32q29 36 29 89q0 61 -45.5 105t-110.5 44h-66l142 202h-186l-225 -321v323h-203v-157h31v-238h121l-143 -205h185l217 309v-68h56q-63 -66 -63 -154
q0 -37 19 -84z" />
    <glyph glyph-name="threequarters" unicode="&#xbe;" horiz-adv-x="904" 
d="M715 614l-391 -549h-127l391 549h127zM92 614h145q50 0 86 -27.5t36 -65.5q0 -44 -46 -73q54 -30 54 -93q0 -38 -29 -62t-78 -24h-168v107h97q16 0 16 16q0 15 -16 15h-97v69h94q14 0 14 13t-14 13h-94v112zM813 66h-124v68h-182l74 278h129l-51 -178h30v94h124v-262z
M880 0h-258v70h-202l7 25l-68 -95h-289l146 205h-192v473h213q78 0 133.5 -46t55.5 -111q0 -15 -2 -22l129 179h290l-144 -201h100l-25 -84h106v-393zM664 40h174v312h-119l24 84h-125l145 202h-188l-185 -259q-7 44 -36 71q30 34 30 71q0 48 -43 82.5t-104 34.5h-170v-393
h193q20 0 37 3l-148 -208h188l190 268l-52 -198h189v-70z" />
    <glyph glyph-name="questiondown" unicode="&#xbf;" horiz-adv-x="527" 
d="M443 -75h-203q-65 0 -110.5 50.5t-45.5 121.5q0 74 48.5 121.5t117.5 47.5v40h151q16 -30 16 -66q0 -55 -34 -96t-85 -47h145v-172zM227 404q0 34 28 58t67 24q38 0 66.5 -24t28.5 -58t-28 -58.5t-67 -24.5t-67 24.5t-28 58.5zM503 -140h-263q-89 0 -152.5 69.5
t-63.5 167.5q0 85 46.5 146.5t119.5 82.5q-23 34 -23 78q0 61 45.5 104t109.5 43q63 0 109 -43t46 -104q0 -40 -22 -75q22 -53 22 -89q0 -41 -14 -78h40v-302zM414 330h-7q32 30 32 74q0 43 -35 75t-82 32q-48 0 -82.5 -31.5t-34.5 -75.5q0 -43 31 -74h-8v-41
q-70 -11 -118.5 -64t-48.5 -128q0 -81 52.5 -138.5t126.5 -57.5h226v220h-72q45 52 45 119q0 42 -25 90z" />
    <glyph glyph-name="Agrave" unicode="&#xc0;" 
d="M665 65h-187v26h-115v185h115v131q-89 -45 -135.5 -135t-50.5 -207h-200q5 109 37 205.5t89.5 174t150.5 123t209 45.5h87v-548zM454 364v-64h-64q29 39 64 64zM730 0h-317v27h-57q0 -5 -0.5 -14t-0.5 -13h-331q5 107 28 205t68.5 185t108.5 150.5t153 100.5t196 37h152
v-678zM454 40h235v598h-111q-98 0 -181 -32.5t-141 -89t-100 -133t-63.5 -162.5t-25.5 -181h248q3 88 24 153v-126h115v-27zM666 710h-141l-218 181h229z" />
    <glyph glyph-name="Aacute" unicode="&#xc1;" 
d="M665 65h-187v26h-115v185h115v131q-89 -45 -135.5 -135t-50.5 -207h-200q5 109 37 205.5t89.5 174t150.5 123t209 45.5h87v-548zM454 364v-64h-64q29 39 64 64zM730 0h-317v27h-57q0 -5 -0.5 -14t-0.5 -13h-331q5 107 28 205t68.5 185t108.5 150.5t153 100.5t196 37h152
v-678zM454 40h235v598h-111q-98 0 -181 -32.5t-141 -89t-100 -133t-63.5 -162.5t-25.5 -181h248q3 88 24 153v-126h115v-27zM714 885l-218 -181h-141l130 181h229z" />
    <glyph glyph-name="Acircumflex" unicode="&#xc2;" 
d="M665 65h-187v26h-115v185h115v131q-89 -45 -135.5 -135t-50.5 -207h-200q5 109 37 205.5t89.5 174t150.5 123t209 45.5h87v-548zM454 364v-64h-64q29 39 64 64zM730 0h-317v27h-57q0 -5 -0.5 -14t-0.5 -13h-331q5 107 28 205t68.5 185t108.5 150.5t153 100.5t196 37h152
v-678zM454 40h235v598h-111q-98 0 -181 -32.5t-141 -89t-100 -133t-63.5 -162.5t-25.5 -181h248q3 88 24 153v-126h115v-27zM669 704h-159l-30 33l-34 -33h-145l179 181z" />
    <glyph glyph-name="Atilde" unicode="&#xc3;" 
d="M665 65h-187v26h-115v185h115v131q-89 -45 -135.5 -135t-50.5 -207h-200q5 109 37 205.5t89.5 174t150.5 123t209 45.5h87v-548zM454 364v-64h-64q29 39 64 64zM730 0h-317v27h-57q0 -5 -0.5 -14t-0.5 -13h-331q5 107 28 205t68.5 185t108.5 150.5t153 100.5t196 37h152
v-678zM454 40h235v598h-111q-98 0 -181 -32.5t-141 -89t-100 -133t-63.5 -162.5t-25.5 -181h248q3 88 24 153v-126h115v-27zM591 849h110q0 -62 -44 -106t-106 -44q-35 0 -73 22.5t-48 22.5q-17 0 -29 -11.5t-12 -28.5h-108q0 62 43.5 105.5t105.5 43.5q36 0 73.5 -22.5
t47.5 -22.5q17 0 28.5 12t11.5 29z" />
    <glyph glyph-name="Adieresis" unicode="&#xc4;" 
d="M665 65h-187v26h-115v185h115v131q-89 -45 -135.5 -135t-50.5 -207h-200q5 109 37 205.5t89.5 174t150.5 123t209 45.5h87v-548zM454 364v-64h-64q29 39 64 64zM730 0h-317v27h-57q0 -5 -0.5 -14t-0.5 -13h-331q5 107 28 205t68.5 185t108.5 150.5t153 100.5t196 37h152
v-678zM454 40h235v598h-111q-98 0 -181 -32.5t-141 -89t-100 -133t-63.5 -162.5t-25.5 -181h248q3 88 24 153v-126h115v-27zM658 766q0 -30 -23 -51.5t-54 -21.5q-30 0 -52 22t-22 51t22.5 49t52.5 20q31 0 53.5 -19t22.5 -50zM476 767q0 -30 -23 -51.5t-53 -21.5t-52 21.5
t-22 51.5q0 29 22.5 49t52.5 20q31 0 53 -19t22 -50z" />
    <glyph glyph-name="Aring" unicode="&#xc5;" 
d="M665 65h-187v26h-115v185h115v131q-89 -45 -135.5 -135t-50.5 -207h-200q5 109 37 205.5t89.5 174t150.5 123t209 45.5h87v-548zM454 364v-64h-64q29 39 64 64zM730 0h-317v27h-57q0 -5 -0.5 -14t-0.5 -13h-331q5 107 28 205t68.5 185t108.5 150.5t153 100.5t196 37h152
v-678zM454 40h235v598h-111q-98 0 -181 -32.5t-141 -89t-100 -133t-63.5 -162.5t-25.5 -181h248q3 88 24 153v-126h115v-27zM588 814q30 0 51.5 -21t21.5 -52t-21.5 -52.5t-51.5 -21.5q-31 0 -52.5 21.5t-21.5 51.5q0 32 21 53t53 21zM587 788q-19 0 -33 -14t-14 -33t14 -33
t33 -14t33 13.5t14 32.5q0 20 -13.5 34t-33.5 14z" />
    <glyph glyph-name="AE" unicode="&#xc6;" horiz-adv-x="1064" 
d="M888 269h-157v139h157v-139zM971 65h-468v26h-118v185h118v129q-93 -46 -141.5 -135t-52.5 -205h-212q5 109 39 205.5t95.5 174t159.5 123t221 45.5h359v-170h-267v-209h267v-169zM477 361v-61h-62q30 38 62 61zM1040 0h-606v27h-57q0 -5 -0.5 -14t-0.5 -13h-352
q6 107 31 205t73 185t115 150.5t161.5 100.5t207.5 37h428v-299h-83v-80h83v-299zM477 40h520v218h-83v161h83v219h-385q-129 0 -232 -49.5t-167.5 -134.5t-100.5 -190t-42 -224h264q3 85 25 152v-125h118v-27z" />
    <glyph glyph-name="Ccedilla" unicode="&#xc7;" horiz-adv-x="612" 
d="M526 234v-170q-56 0 -168 0.5t-168 0.5q-103 119 -103 274q0 158 103 274h336v-170h-223q-26 -50 -26 -104q0 -58 26 -105h223zM588 299v-299h-425q-139 157 -139 339q0 183 138 339h426v-299h-243q-6 -26 -6 -40q0 -18 5 -40h244zM550 40v218h-233q-17 37 -17 81
q0 41 17 80h233v219h-371q-116 -132 -116 -299q0 -162 117 -299h370zM341 -63l-57 55q29 27 67 27t66 -27.5t28 -64.5q0 -35 -27 -64q-30 -27 -67 -27q-40 0 -67 27l57 55q3 -5 10 -5q5 0 9.5 4t4.5 10t-4.5 10.5t-9.5 4.5q-7 0 -10 -5z" />
    <glyph glyph-name="Egrave" unicode="&#xc8;" horiz-adv-x="590" 
d="M431 269h-140v139h140v-139zM505 65h-419v548h419v-170h-239v-209h239v-169zM566 0h-542v678h542v-299h-73v-80h73v-299zM63 40h465v218h-74v161h74v219h-465v-598zM438 710h-141l-218 181h229z" />
    <glyph glyph-name="Eacute" unicode="&#xc9;" horiz-adv-x="590" 
d="M431 269h-140v139h140v-139zM505 65h-419v548h419v-170h-239v-209h239v-169zM566 0h-542v678h542v-299h-73v-80h73v-299zM63 40h465v218h-74v161h74v219h-465v-598zM530 885l-218 -181h-141l130 181h229z" />
    <glyph glyph-name="Ecircumflex" unicode="&#xca;" horiz-adv-x="590" 
d="M431 269h-140v139h140v-139zM505 65h-419v548h419v-170h-239v-209h239v-169zM566 0h-542v678h542v-299h-73v-80h73v-299zM63 40h465v218h-74v161h74v219h-465v-598zM479 704h-159l-30 33l-34 -33h-145l179 181z" />
    <glyph glyph-name="Edieresis" unicode="&#xcb;" horiz-adv-x="590" 
d="M431 269h-140v139h140v-139zM505 65h-419v548h419v-170h-239v-209h239v-169zM566 0h-542v678h542v-299h-73v-80h73v-299zM63 40h465v218h-74v161h74v219h-465v-598zM461 766q0 -30 -23 -51.5t-54 -21.5q-30 0 -52 22t-22 51t22.5 49t52.5 20q31 0 53.5 -19t22.5 -50z
M279 767q0 -30 -23 -51.5t-53 -21.5t-52 21.5t-22 51.5q0 29 22.5 49t52.5 20q31 0 53 -19t22 -50z" />
    <glyph glyph-name="Igrave" unicode="&#xcc;" horiz-adv-x="283" 
d="M41 65h-140v548h140v-548zM89 0h-235v678h235v-678zM-117 40h176v598h-176v-598zM213 710h-141l-218 181h229z" />
    <glyph glyph-name="Iacute" unicode="&#xcd;" horiz-adv-x="283" 
d="M211 65h-140v548h140v-548zM259 0h-235v678h235v-678zM53 40h176v598h-176v-598zM426 885l-218 -181h-141l130 181h229z" />
    <glyph glyph-name="Icircumflex" unicode="&#xce;" horiz-adv-x="283" 
d="M145 65h-140v548h140v-548zM193 0h-235v678h235v-678zM-13 40h176v598h-176v-598zM326 704h-159l-30 33l-34 -33h-145l179 181z" />
    <glyph glyph-name="Idieresis" unicode="&#xcf;" horiz-adv-x="283" 
d="M211 65h-140v548h140v-548zM259 0h-235v678h235v-678zM53 40h176v598h-176v-598zM308 766q0 -30 -23 -51.5t-54 -21.5q-30 0 -52 22t-22 51t22.5 49t52.5 20q31 0 53.5 -19t22.5 -50zM126 767q0 -30 -23 -51.5t-53 -21.5t-52 21.5t-22 51.5q0 29 22.5 49t52.5 20
q31 0 53 -19t22 -50z" />
    <glyph glyph-name="Eth" unicode="&#xd0;" horiz-adv-x="729" 
d="M328 418h35q33 0 56.5 -23t23.5 -56t-23.5 -57t-57.5 -24h-34v32h62v98h-62v30zM128 613h230q114 0 198 -80.5t84 -193.5t-81 -194t-194 -81q-39 0 -118 0.5t-119 0.5v249h-39v50h39v249zM304 314v-79q10 0 29.5 -0.5t28.5 -0.5q44 0 74.5 30.5t30.5 74.5q0 43 -31 73.5
t-73 30.5h-59v-79h62v-50h-62zM63 678h295q141 0 244 -99.5t103 -239.5t-99.5 -239.5t-238.5 -99.5h-2h-301v249h-40v180h39v249zM104 40h261q124 0 211.5 87.5t87.5 211.5t-91 211.5t-215 87.5h-255v-250h-39v-98h40v-250z" />
    <glyph glyph-name="Ntilde" unicode="&#xd1;" horiz-adv-x="752" 
d="M663 65h-187v44q-13 99 -65 178t-134 120v-342h-188v548h91q174 0 295 -105v105h188v-548zM728 0h-317v106q-13 94 -69 165v-271h-318v678h156q130 0 230 -50v50h318v-678zM452 40h235v598h-236v-80q-117 80 -271 80h-115v-598h236v325q60 -40 99.5 -109t51.5 -150v-66z
M476 849h110q0 -62 -44 -106t-106 -44q-35 0 -73 22.5t-48 22.5q-17 0 -29 -11.5t-12 -28.5h-108q0 62 44 105.5t105 43.5q36 0 73.5 -22.5t47.5 -22.5q17 0 28.5 12t11.5 29z" />
    <glyph glyph-name="Ograve" unicode="&#xd2;" horiz-adv-x="828" 
d="M487 334q0 -29 -21 -49.5t-52 -20.5q-30 0 -52 21t-22 49q0 29 22 50t52 21q31 0 52 -21t21 -50zM446 334q0 13 -9 21.5t-23 8.5q-13 0 -22.5 -8.5t-9.5 -21.5q0 -11 9.5 -20t22.5 -9t22.5 9t9.5 20zM738 347q0 -127 -95 -217t-229 -90q-133 0 -228 90t-95 217
q0 126 95 216t228 90t228.5 -90t95.5 -216zM512 334q0 40 -28.5 68t-69.5 28t-69.5 -28t-28.5 -68q0 -39 28.5 -66.5t69.5 -27.5t69.5 27.5t28.5 66.5zM804 347q0 -154 -114.5 -263.5t-275.5 -109.5t-275.5 109.5t-114.5 263.5t114.5 263t275.5 109t275.5 -109t114.5 -263z
M763 347q0 136 -102.5 233t-246.5 97t-246 -96.5t-102 -233.5t102 -234.5t246 -97.5q143 0 246 98t103 234zM508 742h-141l-218 181h229z" />
    <glyph glyph-name="Oacute" unicode="&#xd3;" horiz-adv-x="828" 
d="M487 334q0 -29 -21 -49.5t-52 -20.5q-30 0 -52 21t-22 49q0 29 22 50t52 21q31 0 52 -21t21 -50zM446 334q0 13 -9 21.5t-23 8.5q-13 0 -22.5 -8.5t-9.5 -21.5q0 -11 9.5 -20t22.5 -9t22.5 9t9.5 20zM738 347q0 -127 -95 -217t-229 -90q-133 0 -228 90t-95 217
q0 126 95 216t228 90t228.5 -90t95.5 -216zM512 334q0 40 -28.5 68t-69.5 28t-69.5 -28t-28.5 -68q0 -39 28.5 -66.5t69.5 -27.5t69.5 27.5t28.5 66.5zM804 347q0 -154 -114.5 -263.5t-275.5 -109.5t-275.5 109.5t-114.5 263.5t114.5 263t275.5 109t275.5 -109t114.5 -263z
M763 347q0 136 -102.5 233t-246.5 97t-246 -96.5t-102 -233.5t102 -234.5t246 -97.5q143 0 246 98t103 234zM675 928l-218 -181h-141l130 181h229z" />
    <glyph glyph-name="Ocircumflex" unicode="&#xd4;" horiz-adv-x="828" 
d="M487 334q0 -29 -21 -49.5t-52 -20.5q-30 0 -52 21t-22 49q0 29 22 50t52 21q31 0 52 -21t21 -50zM446 334q0 13 -9 21.5t-23 8.5q-13 0 -22.5 -8.5t-9.5 -21.5q0 -11 9.5 -20t22.5 -9t22.5 9t9.5 20zM738 347q0 -127 -95 -217t-229 -90q-133 0 -228 90t-95 217
q0 126 95 216t228 90t228.5 -90t95.5 -216zM512 334q0 40 -28.5 68t-69.5 28t-69.5 -28t-28.5 -68q0 -39 28.5 -66.5t69.5 -27.5t69.5 27.5t28.5 66.5zM804 347q0 -154 -114.5 -263.5t-275.5 -109.5t-275.5 109.5t-114.5 263.5t114.5 263t275.5 109t275.5 -109t114.5 -263z
M763 347q0 136 -102.5 233t-246.5 97t-246 -96.5t-102 -233.5t102 -234.5t246 -97.5q143 0 246 98t103 234zM597 749h-159l-30 33l-34 -33h-145l179 181z" />
    <glyph glyph-name="Otilde" unicode="&#xd5;" horiz-adv-x="828" 
d="M487 334q0 -29 -21 -49.5t-52 -20.5q-30 0 -52 21t-22 49q0 29 22 50t52 21q31 0 52 -21t21 -50zM446 334q0 13 -9 21.5t-23 8.5q-13 0 -22.5 -8.5t-9.5 -21.5q0 -11 9.5 -20t22.5 -9t22.5 9t9.5 20zM738 347q0 -127 -95 -217t-229 -90q-133 0 -228 90t-95 217
q0 126 95 216t228 90t228.5 -90t95.5 -216zM512 334q0 40 -28.5 68t-69.5 28t-69.5 -28t-28.5 -68q0 -39 28.5 -66.5t69.5 -27.5t69.5 27.5t28.5 66.5zM804 347q0 -154 -114.5 -263.5t-275.5 -109.5t-275.5 109.5t-114.5 263.5t114.5 263t275.5 109t275.5 -109t114.5 -263z
M763 347q0 136 -102.5 233t-246.5 97t-246 -96.5t-102 -233.5t102 -234.5t246 -97.5q143 0 246 98t103 234zM514 886h110q0 -62 -44 -106t-106 -44q-35 0 -73 22.5t-48 22.5q-17 0 -29 -11.5t-12 -28.5h-108q0 61 44 105t105 44q36 0 73.5 -22.5t47.5 -22.5q17 0 28.5 12
t11.5 29z" />
    <glyph glyph-name="Odieresis" unicode="&#xd6;" horiz-adv-x="828" 
d="M487 334q0 -29 -21 -49.5t-52 -20.5q-30 0 -52 21t-22 49q0 29 22 50t52 21q31 0 52 -21t21 -50zM446 334q0 13 -9 21.5t-23 8.5q-13 0 -22.5 -8.5t-9.5 -21.5q0 -11 9.5 -20t22.5 -9t22.5 9t9.5 20zM738 347q0 -127 -95 -217t-229 -90q-133 0 -228 90t-95 217
q0 126 95 216t228 90t228.5 -90t95.5 -216zM512 334q0 40 -28.5 68t-69.5 28t-69.5 -28t-28.5 -68q0 -39 28.5 -66.5t69.5 -27.5t69.5 27.5t28.5 66.5zM804 347q0 -154 -114.5 -263.5t-275.5 -109.5t-275.5 109.5t-114.5 263.5t114.5 263t275.5 109t275.5 -109t114.5 -263z
M763 347q0 136 -102.5 233t-246.5 97t-246 -96.5t-102 -233.5t102 -234.5t246 -97.5q143 0 246 98t103 234zM582 811q0 -30 -23 -51.5t-54 -21.5q-30 0 -52 22t-22 51t22.5 49t52.5 20q31 0 53.5 -19t22.5 -50zM400 812q0 -30 -23 -51.5t-53 -21.5t-52 21.5t-22 51.5
q0 29 22.5 49t52.5 20q31 0 53 -19t22 -50z" />
    <glyph glyph-name="multiply" unicode="&#xd7;" horiz-adv-x="577" 
d="M468 148l-53 -54l-127 126l-126 -126l-53 54l127 125l-127 126l53 54l126 -126l127 126l53 -54l-127 -126zM553 148l-138 -139l-127 126l-126 -126l-138 139l126 125l-126 126l138 139l126 -126l127 126l138 -139l-126 -126zM415 63l85 85l-127 125l127 126l-85 85
l-127 -126l-126 126l-85 -85l127 -126l-127 -125l85 -85l126 126z" />
    <glyph glyph-name="Oslash" unicode="&#xd8;" horiz-adv-x="1071" 
d="M546 265l63 61q-4 -24 -21.5 -41t-41.5 -20zM884 631l-94 -93q73 -84 73 -191q0 -127 -95.5 -217t-231.5 -90q-105 0 -193 59l-37 -36h-119l94 91q-73 86 -73 193q0 126 96 216t231 90q107 0 193 -59l38 37h118zM625 376l-131 -127q20 -9 41 -9q42 0 71 28t29 70
q0 20 -10 38zM439 310l119 116q-9 4 -22 4q-41 0 -70.5 -28t-29.5 -68q0 -16 3 -24zM1047 696l-169 -165q52 -85 52 -184q0 -154 -115.5 -263.5t-278.5 -109.5q-98 0 -183 42l-19 -19h-310l169 164q-52 89 -52 186q0 154 115.5 263t278.5 109q95 0 182 -42l21 19h309z
M823 536l122 119h-189l-30 -29q-84 51 -191 51q-146 0 -249 -97t-103 -233q0 -104 65 -191l-122 -118h190l29 29q81 -52 191 -52q146 0 249.5 97.5t103.5 234.5q0 97 -66 189z" />
    <glyph glyph-name="Ugrave" unicode="&#xd9;" horiz-adv-x="601" 
d="M515 617v-347q0 -93 -63 -159t-151 -66t-151.5 66t-63.5 159v347h179v-337q0 -16 10.5 -26.5t25.5 -10.5t25 10.5t10 26.5v337h179zM577 683v-413q0 -120 -81 -205t-195 -85t-195.5 85t-81.5 205v413h553zM539 270v372h-226v-362q0 -13 -12 -13q-13 0 -13 13v362h-225
v-372q0 -103 70.5 -176.5t167.5 -73.5q98 0 168 73.5t70 176.5zM429 710h-141l-218 181h229z" />
    <glyph glyph-name="Uacute" unicode="&#xda;" horiz-adv-x="601" 
d="M515 617v-347q0 -93 -63 -159t-151 -66t-151.5 66t-63.5 159v347h179v-337q0 -16 10.5 -26.5t25.5 -10.5t25 10.5t10 26.5v337h179zM577 683v-413q0 -120 -81 -205t-195 -85t-195.5 85t-81.5 205v413h553zM539 270v372h-226v-362q0 -13 -12 -13q-13 0 -13 13v362h-225
v-372q0 -103 70.5 -176.5t167.5 -73.5q98 0 168 73.5t70 176.5zM544 885l-218 -181h-141l130 181h229z" />
    <glyph glyph-name="Ucircumflex" unicode="&#xdb;" horiz-adv-x="601" 
d="M515 617v-347q0 -93 -63 -159t-151 -66t-151.5 66t-63.5 159v347h179v-337q0 -16 10.5 -26.5t25.5 -10.5t25 10.5t10 26.5v337h179zM577 683v-413q0 -120 -81 -205t-195 -85t-195.5 85t-81.5 205v413h553zM539 270v372h-226v-362q0 -13 -12 -13q-13 0 -13 13v362h-225
v-372q0 -103 70.5 -176.5t167.5 -73.5q98 0 168 73.5t70 176.5zM484 704h-159l-30 33l-34 -33h-145l179 181z" />
    <glyph glyph-name="Udieresis" unicode="&#xdc;" horiz-adv-x="601" 
d="M515 617v-347q0 -93 -63 -159t-151 -66t-151.5 66t-63.5 159v347h179v-337q0 -16 10.5 -26.5t25.5 -10.5t25 10.5t10 26.5v337h179zM577 683v-413q0 -120 -81 -205t-195 -85t-195.5 85t-81.5 205v413h553zM539 270v372h-226v-362q0 -13 -12 -13q-13 0 -13 13v362h-225
v-372q0 -103 70.5 -176.5t167.5 -73.5q98 0 168 73.5t70 176.5zM466 766q0 -30 -23 -51.5t-54 -21.5q-30 0 -52 22t-22 51t22.5 49t52.5 20q31 0 53.5 -19t22.5 -50zM284 767q0 -30 -23 -51.5t-53 -21.5t-52 21.5t-22 51.5q0 29 22.5 49t52.5 20q31 0 53 -19t22 -50z" />
    <glyph glyph-name="Yacute" unicode="&#xdd;" horiz-adv-x="821" 
d="M680 613l-176 -284v-265h-189v265l-176 284h207l64 -112l63 112h207zM797 678l-229 -365v-313h-317v313q-140 222 -227 365h362l23 -44l26 44h362zM528 325l196 313h-266l-48 -88l-50 88h-264q41 -68 195 -315v-282h237v284zM656 885l-218 -181h-141l130 181h229z" />
    <glyph glyph-name="Thorn" unicode="&#xde;" horiz-adv-x="683" 
d="M298 352h84q12 0 12 -8t-12 -8h-84v16zM274 544h92q99 0 164 -53t65 -147t-64.5 -146.5t-163.5 -52.5h-92v-81h-187v549h186v-69zM274 312h108q16 0 26 8.5t10 23.5t-10 23.5t-26 8.5h-108v-64zM338 609h28q127 0 210 -70t83 -195q0 -124 -82.5 -193.5t-209.5 -69.5h-29
v-81h-314v678h314v-69zM299 121h68q110 0 181 58.5t71 164.5t-71.5 165t-181.5 59h-68v70h-234v-597h235v80z" />
    <glyph glyph-name="germandbls" unicode="&#xdf;" horiz-adv-x="670" 
d="M578 365h-112q50 -19 83 -75.5t33 -121.5q0 -58 -28 -106h-467v136h123q-52 19 -85.5 75.5t-33.5 122.5q0 56 27 105h460v-136zM308 365h-56q39 -16 71 -59q-10 28 -15 59zM364 198h60q-42 16 -75 60q14 -30 15 -60zM642 303h-30q34 -66 34 -135q0 -74 -54 -168h-568v260
h37q-33 64 -33 136q0 76 53 167h561v-260zM63 39h506q37 64 37 129q0 100 -67 174h63v182h-498q-37 -63 -37 -128q0 -102 68 -175h-72v-182z" />
    <glyph glyph-name="agrave" unicode="&#xe0;" horiz-adv-x="634" 
d="M547 62h-149v21h-91v148h91v105q-72 -35 -109 -107.5t-40 -166.5h-160q4 87 29.5 164.5t71.5 139.5t120 98.5t167 36.5h70v-439zM374 294v-39h-38q18 23 38 39zM610 0h-275v21h-24v-21h-287q4 89 23 170t56.5 153t89 125t124.5 84t160 31h133v-563zM374 39h196v485h-93
q-98 0 -176.5 -40t-128 -109t-76.5 -154.5t-31 -181.5h207q2 56 11 96v-75h91v-21zM553 595h-141l-218 181h229z" />
    <glyph glyph-name="aacute" unicode="&#xe1;" horiz-adv-x="634" 
d="M547 62h-149v21h-91v148h91v105q-72 -35 -109 -107.5t-40 -166.5h-160q4 87 29.5 164.5t71.5 139.5t120 98.5t167 36.5h70v-439zM374 294v-39h-38q18 23 38 39zM610 0h-275v21h-24v-21h-287q4 89 23 170t56.5 153t89 125t124.5 84t160 31h133v-563zM374 39h196v485h-93
q-98 0 -176.5 -40t-128 -109t-76.5 -154.5t-31 -181.5h207q2 56 11 96v-75h91v-21zM631 770l-218 -181h-141l130 181h229z" />
    <glyph glyph-name="acircumflex" unicode="&#xe2;" horiz-adv-x="634" 
d="M547 62h-149v21h-91v148h91v105q-72 -35 -109 -107.5t-40 -166.5h-160q4 87 29.5 164.5t71.5 139.5t120 98.5t167 36.5h70v-439zM374 294v-39h-38q18 23 38 39zM610 0h-275v21h-24v-21h-287q4 89 23 170t56.5 153t89 125t124.5 84t160 31h133v-563zM374 39h196v485h-93
q-98 0 -176.5 -40t-128 -109t-76.5 -154.5t-31 -181.5h207q2 56 11 96v-75h91v-21zM585 589h-159l-30 33l-34 -33h-145l179 181z" />
    <glyph glyph-name="atilde" unicode="&#xe3;" horiz-adv-x="634" 
d="M547 62h-149v21h-91v148h91v105q-72 -35 -109 -107.5t-40 -166.5h-160q4 87 29.5 164.5t71.5 139.5t120 98.5t167 36.5h70v-439zM374 294v-39h-38q18 23 38 39zM610 0h-275v21h-24v-21h-287q4 89 23 170t56.5 153t89 125t124.5 84t160 31h133v-563zM374 39h196v485h-93
q-98 0 -176.5 -40t-128 -109t-76.5 -154.5t-31 -181.5h207q2 56 11 96v-75h91v-21zM493 734h110q0 -62 -44 -106t-106 -44q-35 0 -73 22.5t-48 22.5q-17 0 -29 -11.5t-12 -28.5h-108q0 61 43.5 105t105.5 44q36 0 73.5 -22.5t47.5 -22.5q17 0 28.5 12t11.5 29z" />
    <glyph glyph-name="adieresis" unicode="&#xe4;" horiz-adv-x="634" 
d="M547 62h-149v21h-91v148h91v105q-72 -35 -109 -107.5t-40 -166.5h-160q4 87 29.5 164.5t71.5 139.5t120 98.5t167 36.5h70v-439zM374 294v-39h-38q18 23 38 39zM610 0h-275v21h-24v-21h-287q4 89 23 170t56.5 153t89 125t124.5 84t160 31h133v-563zM374 39h196v485h-93
q-98 0 -176.5 -40t-128 -109t-76.5 -154.5t-31 -181.5h207q2 56 11 96v-75h91v-21zM555 651q0 -30 -23 -51.5t-54 -21.5q-30 0 -52 22t-22 51t22.5 49t52.5 20q31 0 53.5 -19t22.5 -50zM373 652q0 -30 -23 -51.5t-53 -21.5t-52 21.5t-22 51.5q0 29 22.5 49t52.5 20
q31 0 53 -19t22 -50z" />
    <glyph glyph-name="aring" unicode="&#xe5;" horiz-adv-x="634" 
d="M547 62h-149v21h-91v148h91v105q-72 -35 -109 -107.5t-40 -166.5h-160q4 87 29.5 164.5t71.5 139.5t120 98.5t167 36.5h70v-439zM374 294v-39h-38q18 23 38 39zM610 0h-275v21h-24v-21h-287q4 89 23 170t56.5 153t89 125t124.5 84t160 31h133v-563zM374 39h196v485h-93
q-98 0 -176.5 -40t-128 -109t-76.5 -154.5t-31 -181.5h207q2 56 11 96v-75h91v-21zM479 705q30 0 51.5 -21t21.5 -52t-21.5 -52.5t-51.5 -21.5q-31 0 -52.5 21.5t-21.5 51.5q0 31 21.5 52.5t52.5 21.5zM478 679q-20 0 -33.5 -13.5t-13.5 -33.5t13.5 -33.5t33.5 -13.5
q19 0 33 13.5t14 32.5q0 20 -13.5 34t-33.5 14z" />
    <glyph glyph-name="ae" unicode="&#xe6;" horiz-adv-x="890" 
d="M733 226h-126v110h126v-110zM799 62h-377v21h-94v148h94v103q-76 -36 -115 -107.5t-41 -164.5h-171q4 87 31.5 164.5t77 139.5t128.5 98.5t178 36.5h289v-136h-215v-167h215v-136zM397 290v-35h-37q16 19 37 35zM866 0h-511v21h-23q-1 -7 -1 -21h-307q4 89 25 170t61 153
t95.5 125t133.5 84t171 31h356v-260h-66v-43h66v-260zM397 39h427v182h-66v121h66v182h-314q-84 0 -155.5 -26.5t-122 -72t-86.5 -107.5t-55 -132.5t-22 -146.5h221q2 53 13 96v-75h94v-21z" />
    <glyph glyph-name="ccedilla" unicode="&#xe7;" horiz-adv-x="515" 
d="M431 62h-266q-81 94 -81 220q0 125 81 219h266v-136h-176q-20 -38 -20 -83q0 -46 20 -84h176v-136zM491 0h-352q-115 131 -115 282q0 150 115 281h352v-260h-195q-2 -7 -2 -21q0 -12 3 -22h194v-260zM156 39h298v182h-186q-11 33 -11 61q0 29 13 60h184v182h-298
q-95 -106 -95 -242q0 -137 95 -243zM261 -62l-57 55q29 27 67 27t66 -27.5t28 -64.5q0 -35 -27 -64q-30 -27 -67 -27q-40 0 -67 27l57 55q3 -5 10 -5q5 0 9.5 4t4.5 10t-4.5 10.5t-9.5 4.5q-7 0 -10 -5z" />
    <glyph glyph-name="egrave" unicode="&#xe8;" horiz-adv-x="498" 
d="M357 226h-112v110h112v-110zM415 62h-332v439h332v-136h-190v-167h190v-136zM474 0h-450v563h450v-260h-58v-43h58v-260zM61 39h376v182h-58v121h58v182h-376v-485zM384 595h-141l-218 181h229z" />
    <glyph glyph-name="eacute" unicode="&#xe9;" horiz-adv-x="498" 
d="M357 226h-112v110h112v-110zM415 62h-332v439h332v-136h-190v-167h190v-136zM474 0h-450v563h450v-260h-58v-43h58v-260zM61 39h376v182h-58v121h58v182h-376v-485zM478 770l-218 -181h-141l130 181h229z" />
    <glyph glyph-name="ecircumflex" unicode="&#xea;" horiz-adv-x="498" 
d="M357 226h-112v110h112v-110zM415 62h-332v439h332v-136h-190v-167h190v-136zM474 0h-450v563h450v-260h-58v-43h58v-260zM61 39h376v182h-58v121h58v182h-376v-485zM433 589h-159l-30 33l-34 -33h-145l179 181z" />
    <glyph glyph-name="edieresis" unicode="&#xeb;" horiz-adv-x="498" 
d="M357 226h-112v110h112v-110zM415 62h-332v439h332v-136h-190v-167h190v-136zM474 0h-450v563h450v-260h-58v-43h58v-260zM61 39h376v182h-58v121h58v182h-376v-485zM415 651q0 -30 -23 -51.5t-54 -21.5q-30 0 -52 22t-22 51t22.5 49t52.5 20q31 0 53.5 -19t22.5 -50z
M233 652q0 -30 -23 -51.5t-53 -21.5t-52 21.5t-22 51.5q0 29 22.5 49t52.5 20q31 0 53 -19t22 -50z" />
    <glyph glyph-name="igrave" unicode="&#xec;" horiz-adv-x="242" 
d="M0 62h-106v439h106v-439zM44 0h-194v563h194v-563zM-123 39h139v485h-139v-485zM209 595h-141l-218 181h229z" />
    <glyph glyph-name="iacute" unicode="&#xed;" horiz-adv-x="242" 
d="M174 62h-106v439h106v-439zM218 0h-194v563h194v-563zM51 39h139v485h-139v-485zM396 770l-218 -181h-141l130 181h229z" />
    <glyph glyph-name="icircumflex" unicode="&#xee;" horiz-adv-x="242" 
d="M87 62h-106v439h106v-439zM131 0h-194v563h194v-563zM-36 39h139v485h-139v-485zM305 589h-159l-30 33l-34 -33h-145l179 181z" />
    <glyph glyph-name="idieresis" unicode="&#xef;" horiz-adv-x="242" 
d="M174 62h-106v439h106v-439zM218 0h-194v563h194v-563zM51 39h139v485h-139v-485zM287 651q0 -30 -23 -51.5t-54 -21.5q-30 0 -52 22t-22 51t22.5 49t52.5 20q31 0 53.5 -19t22.5 -50zM105 652q0 -30 -23 -51.5t-53 -21.5t-52 21.5t-22 51.5q0 29 22.5 49t52.5 20
q31 0 53 -19t22 -50z" />
    <glyph glyph-name="eth" unicode="&#xf0;" horiz-adv-x="613" 
d="M283 341h23q25 0 42.5 -17t17.5 -42t-17.5 -43t-42.5 -18h-23v17h48v87h-48v16zM118 501h184q91 0 158 -64.5t67 -154.5q0 -91 -64.5 -155.5t-155.5 -64.5h-189v200h-31v39h31v200zM260 198h46q34 0 58.5 24.5t24.5 59.5q0 34 -24.5 58.5t-58.5 24.5h-46v-64h47v-39h-47
v-64zM56 563h246q116 0 201.5 -83t85.5 -198q0 -116 -82.5 -199t-197.5 -83h-2h-251v199h-32v165h32v199zM95 238v-199q3 0 70 -0.5t142 -0.5q100 0 172 72t72 172t-74.5 171t-174.5 71h-207v-199h-32v-87h32z" />
    <glyph glyph-name="ntilde" unicode="&#xf1;" horiz-adv-x="631" 
d="M544 62h-149q0 99 -44 168.5t-116 105.5v-274h-149v439h70q139 0 239 -84v84h149v-439zM607 0h-275q0 139 -34 196v-196h-274v563h132q91 0 176 -34v34h275v-563zM371 39h196v485h-196v-60q-96 60 -215 60h-93v-485h196v255q112 -78 112 -255zM415 734h110
q0 -62 -44 -106t-106 -44q-35 0 -73 22.5t-48 22.5q-17 0 -29 -11.5t-12 -28.5h-108q0 61 43.5 105t105.5 44q36 0 73.5 -22.5t47.5 -22.5q17 0 28.5 12t11.5 29z" />
    <glyph glyph-name="ograve" unicode="&#xf2;" horiz-adv-x="695" 
d="M402 279q0 -22 -16 -37.5t-38 -15.5q-23 0 -39.5 15.5t-16.5 37.5q0 21 16.5 36.5t39.5 15.5q22 0 38 -15.5t16 -36.5zM362 279q0 12 -14 12q-16 0 -16 -12q0 -13 16 -13q14 0 14 13zM607 287q0 -100 -76 -172t-183 -72q-108 0 -184 71.5t-76 172.5q0 102 76 174t184 72
q107 0 183 -72t76 -174zM426 279q0 31 -23 53.5t-55 22.5q-33 0 -56.5 -22.5t-23.5 -53.5q0 -32 23.5 -54.5t56.5 -22.5q32 0 55 22.5t23 54.5zM671 287q0 -127 -95 -217.5t-228 -90.5q-134 0 -229 90.5t-95 217.5q0 128 95 218.5t229 90.5q133 0 228 -90.5t95 -218.5z
M631 287q0 112 -83.5 191t-199.5 79q-118 0 -201 -79t-83 -191q0 -110 83.5 -189t200.5 -79q116 0 199.5 79.5t83.5 188.5zM466 615h-141l-218 181h229z" />
    <glyph glyph-name="oacute" unicode="&#xf3;" horiz-adv-x="695" 
d="M402 279q0 -22 -16 -37.5t-38 -15.5q-23 0 -39.5 15.5t-16.5 37.5q0 21 16.5 36.5t39.5 15.5q22 0 38 -15.5t16 -36.5zM362 279q0 12 -14 12q-16 0 -16 -12q0 -13 16 -13q14 0 14 13zM607 287q0 -100 -76 -172t-183 -72q-108 0 -184 71.5t-76 172.5q0 102 76 174t184 72
q107 0 183 -72t76 -174zM426 279q0 31 -23 53.5t-55 22.5q-33 0 -56.5 -22.5t-23.5 -53.5q0 -32 23.5 -54.5t56.5 -22.5q32 0 55 22.5t23 54.5zM671 287q0 -127 -95 -217.5t-228 -90.5q-134 0 -229 90.5t-95 217.5q0 128 95 218.5t229 90.5q133 0 228 -90.5t95 -218.5z
M631 287q0 112 -83.5 191t-199.5 79q-118 0 -201 -79t-83 -191q0 -110 83.5 -189t200.5 -79q116 0 199.5 79.5t83.5 188.5zM625 805l-218 -181h-141l130 181h229z" />
    <glyph glyph-name="ocircumflex" unicode="&#xf4;" horiz-adv-x="695" 
d="M402 279q0 -22 -16 -37.5t-38 -15.5q-23 0 -39.5 15.5t-16.5 37.5q0 21 16.5 36.5t39.5 15.5q22 0 38 -15.5t16 -36.5zM362 279q0 12 -14 12q-16 0 -16 -12q0 -13 16 -13q14 0 14 13zM607 287q0 -100 -76 -172t-183 -72q-108 0 -184 71.5t-76 172.5q0 102 76 174t184 72
q107 0 183 -72t76 -174zM426 279q0 31 -23 53.5t-55 22.5q-33 0 -56.5 -22.5t-23.5 -53.5q0 -32 23.5 -54.5t56.5 -22.5q32 0 55 22.5t23 54.5zM671 287q0 -127 -95 -217.5t-228 -90.5q-134 0 -229 90.5t-95 217.5q0 128 95 218.5t229 90.5q133 0 228 -90.5t95 -218.5z
M631 287q0 112 -83.5 191t-199.5 79q-118 0 -201 -79t-83 -191q0 -110 83.5 -189t200.5 -79q116 0 199.5 79.5t83.5 188.5zM532 616h-159l-30 33l-34 -33h-145l179 181z" />
    <glyph glyph-name="otilde" unicode="&#xf5;" horiz-adv-x="695" 
d="M402 279q0 -22 -16 -37.5t-38 -15.5q-23 0 -39.5 15.5t-16.5 37.5q0 21 16.5 36.5t39.5 15.5q22 0 38 -15.5t16 -36.5zM362 279q0 12 -14 12q-16 0 -16 -12q0 -13 16 -13q14 0 14 13zM607 287q0 -100 -76 -172t-183 -72q-108 0 -184 71.5t-76 172.5q0 102 76 174t184 72
q107 0 183 -72t76 -174zM426 279q0 31 -23 53.5t-55 22.5q-33 0 -56.5 -22.5t-23.5 -53.5q0 -32 23.5 -54.5t56.5 -22.5q32 0 55 22.5t23 54.5zM671 287q0 -127 -95 -217.5t-228 -90.5q-134 0 -229 90.5t-95 217.5q0 128 95 218.5t229 90.5q133 0 228 -90.5t95 -218.5z
M631 287q0 112 -83.5 191t-199.5 79q-118 0 -201 -79t-83 -191q0 -110 83.5 -189t200.5 -79q116 0 199.5 79.5t83.5 188.5zM447 763h110q0 -62 -44 -106t-106 -44q-35 0 -73 22.5t-48 22.5q-17 0 -29 -11.5t-12 -28.5h-108q0 62 43.5 105.5t105.5 43.5q36 0 73.5 -22.5
t47.5 -22.5q17 0 28.5 12t11.5 29z" />
    <glyph glyph-name="odieresis" unicode="&#xf6;" horiz-adv-x="695" 
d="M402 279q0 -22 -16 -37.5t-38 -15.5q-23 0 -39.5 15.5t-16.5 37.5q0 21 16.5 36.5t39.5 15.5q22 0 38 -15.5t16 -36.5zM362 279q0 12 -14 12q-16 0 -16 -12q0 -13 16 -13q14 0 14 13zM607 287q0 -100 -76 -172t-183 -72q-108 0 -184 71.5t-76 172.5q0 102 76 174t184 72
q107 0 183 -72t76 -174zM426 279q0 31 -23 53.5t-55 22.5q-33 0 -56.5 -22.5t-23.5 -53.5q0 -32 23.5 -54.5t56.5 -22.5q32 0 55 22.5t23 54.5zM671 287q0 -127 -95 -217.5t-228 -90.5q-134 0 -229 90.5t-95 217.5q0 128 95 218.5t229 90.5q133 0 228 -90.5t95 -218.5z
M631 287q0 112 -83.5 191t-199.5 79q-118 0 -201 -79t-83 -191q0 -110 83.5 -189t200.5 -79q116 0 199.5 79.5t83.5 188.5zM513 687q0 -30 -23 -51.5t-54 -21.5q-30 0 -52 22t-22 51t22.5 49t52.5 20q31 0 53.5 -19t22.5 -50zM331 688q0 -30 -23 -51.5t-53 -21.5t-52 21.5
t-22 51.5q0 29 22.5 49t52.5 20q31 0 53 -19t22 -50z" />
    <glyph glyph-name="divide" unicode="&#xf7;" horiz-adv-x="546" 
d="M334 441q0 -24 -17.5 -41.5t-42.5 -17.5q-24 0 -42 18t-18 41q0 25 17.5 43t42.5 18t42.5 -17.5t17.5 -43.5zM462 245h-377v78h377v-78zM334 125q0 -24 -17.5 -42t-42.5 -18t-42.5 18t-17.5 42q0 25 17.5 42.5t42.5 17.5t42.5 -17.5t17.5 -42.5zM522 183h-143
q14 -30 14 -57q0 -50 -35.5 -86.5t-84.5 -36.5q-48 0 -83.5 36.5t-35.5 86.5q0 29 13 57h-143v202h143q-13 26 -13 57q0 52 35 88t84 36q50 0 85 -36t35 -88q0 -26 -14 -57h143v-202zM355 126q0 35 -24 59.5t-58 24.5q-33 0 -57.5 -24.5t-24.5 -59.5q0 -34 24.5 -59
t57.5 -25q34 0 58 25t24 59zM355 442q0 36 -23.5 60.5t-58.5 24.5q-33 0 -57.5 -24.5t-24.5 -60.5q0 -34 24.5 -58.5t57.5 -24.5q34 0 58 24.5t24 58.5zM62 222h422v125h-422v-125z" />
    <glyph glyph-name="oslash" unicode="&#xf8;" horiz-adv-x="924" 
d="M742 515l-75 -73q58 -69 58 -155q0 -100 -77.5 -172t-184.5 -72q-87 0 -156 47l-29 -30h-96l75 74q-57 68 -57 153q0 102 77 174t186 72q83 0 154 -47l31 29h94zM534 311l-105 -101q20 -8 34 -8q32 0 55.5 23t23.5 54q0 20 -8 32zM385 259l96 93q-9 3 -18 3
q-34 0 -57.5 -22t-23.5 -54q0 -14 3 -20zM900 579l-149 -145q39 -69 39 -147q0 -127 -96.5 -217.5t-230.5 -90.5q-76 0 -144 31l-14 -13h-281l150 146q-39 69 -39 144q0 128 96 218.5t232 90.5q76 0 143 -31l14 14h280zM699 440l101 99h-162l-24 -23q-69 41 -151 41
q-119 0 -203.5 -79t-84.5 -191q0 -84 50 -151l-102 -99h164l23 23q69 -41 153 -41q117 0 201.5 79t84.5 189q0 84 -50 153z" />
    <glyph glyph-name="ugrave" unicode="&#xf9;" horiz-adv-x="507" 
d="M424 505v-278q0 -74 -50.5 -127t-119.5 -53q-71 0 -121 53t-50 127v278h142v-270q0 -13 8 -21.5t20 -8.5t19.5 8.5t7.5 21.5v270h144zM483 567v-340q0 -100 -67.5 -171.5t-161.5 -71.5q-95 0 -162.5 71.5t-67.5 171.5v340h459zM446 227v301h-188v-293q0 -7 -5 -7
q-6 0 -6 7v293h-186v-301q0 -84 56.5 -143.5t136.5 -59.5q78 0 135 59.5t57 143.5zM395 595h-141l-218 181h229z" />
    <glyph glyph-name="uacute" unicode="&#xfa;" horiz-adv-x="507" 
d="M424 505v-278q0 -74 -50.5 -127t-119.5 -53q-71 0 -121 53t-50 127v278h142v-270q0 -13 8 -21.5t20 -8.5t19.5 8.5t7.5 21.5v270h144zM483 567v-340q0 -100 -67.5 -171.5t-161.5 -71.5q-95 0 -162.5 71.5t-67.5 171.5v340h459zM446 227v301h-188v-293q0 -7 -5 -7
q-6 0 -6 7v293h-186v-301q0 -84 56.5 -143.5t136.5 -59.5q78 0 135 59.5t57 143.5zM485 770l-218 -181h-141l130 181h229z" />
    <glyph glyph-name="ucircumflex" unicode="&#xfb;" horiz-adv-x="507" 
d="M424 505v-278q0 -74 -50.5 -127t-119.5 -53q-71 0 -121 53t-50 127v278h142v-270q0 -13 8 -21.5t20 -8.5t19.5 8.5t7.5 21.5v270h144zM483 567v-340q0 -100 -67.5 -171.5t-161.5 -71.5q-95 0 -162.5 71.5t-67.5 171.5v340h459zM446 227v301h-188v-293q0 -7 -5 -7
q-6 0 -6 7v293h-186v-301q0 -84 56.5 -143.5t136.5 -59.5q78 0 135 59.5t57 143.5zM437 589h-159l-30 33l-34 -33h-145l179 181z" />
    <glyph glyph-name="udieresis" unicode="&#xfc;" horiz-adv-x="507" 
d="M424 505v-278q0 -74 -50.5 -127t-119.5 -53q-71 0 -121 53t-50 127v278h142v-270q0 -13 8 -21.5t20 -8.5t19.5 8.5t7.5 21.5v270h144zM483 567v-340q0 -100 -67.5 -171.5t-161.5 -71.5q-95 0 -162.5 71.5t-67.5 171.5v340h459zM446 227v301h-188v-293q0 -7 -5 -7
q-6 0 -6 7v293h-186v-301q0 -84 56.5 -143.5t136.5 -59.5q78 0 135 59.5t57 143.5zM419 651q0 -30 -23 -51.5t-54 -21.5q-30 0 -52 22t-22 51t22.5 49t52.5 20q31 0 53.5 -19t22.5 -50zM237 652q0 -30 -23 -51.5t-53 -21.5t-52 21.5t-22 51.5q0 29 22.5 49t52.5 20
q31 0 53 -19t22 -50z" />
    <glyph glyph-name="yacute" unicode="&#xfd;" horiz-adv-x="702" 
d="M566 501l-140 -227v-212h-151v212l-140 227h165l50 -90l51 90h165zM678 563l-190 -306v-257h-275v257l-189 306h312l14 -25l14 25h314zM449 267l159 257h-221l-37 -65l-36 65h-221q20 -33 48 -78.5t62 -99.5t49 -79v-228h197v228zM582 770l-218 -181h-141l130 181h229z
" />
    <glyph glyph-name="thorn" unicode="&#xfe;" horiz-adv-x="574" 
d="M257 287h62q7 0 7 -2q-3 -2 -7 -2h-62v4zM234 446h73q79 0 130.5 -42.5t51.5 -118.5q0 -75 -51.5 -117t-130.5 -42h-73v-64h-148v439h148v-55zM234 259h85q13 0 21.5 7t8.5 19t-8.5 19t-21.5 7h-85v-52zM295 508h12q105 0 174 -59t69 -164q0 -104 -69 -162t-174 -58h-12
v-65h-271v563h271v-55zM257 103h50q89 0 147 48t58 134q0 87 -58 135.5t-147 48.5h-50v55h-194v-485h194v64z" />
    <glyph glyph-name="ydieresis" unicode="&#xff;" horiz-adv-x="702" 
d="M566 501l-140 -227v-212h-151v212l-140 227h165l50 -90l51 90h165zM678 563l-190 -306v-257h-275v257l-189 306h312l14 -25l14 25h314zM449 267l159 257h-221l-37 -65l-36 65h-221q20 -33 48 -78.5t62 -99.5t49 -79v-228h197v228zM517 651q0 -30 -23 -51.5t-54 -21.5
q-30 0 -52 22t-22 51t22.5 49t52.5 20q31 0 53.5 -19t22.5 -50zM335 652q0 -30 -23 -51.5t-53 -21.5t-52 21.5t-22 51.5q0 29 22.5 49t52.5 20q31 0 53 -19t22 -50z" />
    <glyph glyph-name="Dcroat" unicode="&#x110;" horiz-adv-x="729" 
d="M328 418h35q33 0 56.5 -23t23.5 -56t-23.5 -57t-57.5 -24h-34v32h62v98h-62v30zM128 613h230q114 0 198 -80.5t84 -193.5t-81 -194t-194 -81q-39 0 -118 0.5t-119 0.5v249h-39v50h39v249zM304 314v-79q10 0 29.5 -0.5t28.5 -0.5q44 0 74.5 30.5t30.5 74.5q0 43 -31 73.5
t-73 30.5h-59v-79h62v-50h-62zM63 678h295q141 0 244 -99.5t103 -239.5t-99.5 -239.5t-238.5 -99.5h-2h-301v249h-40v180h39v249zM104 40h261q124 0 211.5 87.5t87.5 211.5t-91 211.5t-215 87.5h-255v-250h-39v-98h40v-250z" />
    <glyph glyph-name="dotlessi" unicode="&#x131;" horiz-adv-x="242" 
d="M174 62h-106v439h106v-439zM218 0h-194v563h194v-563zM51 39h139v485h-139v-485z" />
    <glyph glyph-name="OE" unicode="&#x152;" horiz-adv-x="1106" 
d="M509 332q0 -29 -22.5 -49.5t-54.5 -20.5t-54.5 20.5t-22.5 49.5t23 49.5t54 20.5t54 -20.5t23 -49.5zM465 332q0 11 -10 19.5t-23 8.5q-14 0 -24 -8.5t-10 -19.5q0 -12 10 -20.5t24 -8.5t23.5 8.5t9.5 20.5zM929 273h-158v140h158v-140zM1012 64h-440q-65 -27 -140 -27
q-140 0 -239.5 89.5t-99.5 216.5t99.5 216.5t239.5 89.5q75 0 139 -26h441v-174h-268v-212h268v-173zM535 332q0 39 -30 66.5t-73 27.5q-42 0 -72.5 -27.5t-30.5 -66.5t30.5 -67t72.5 -28q43 0 73 28t30 67zM1082 -2h-496q-70 -27 -154 -27q-169 0 -288.5 109t-119.5 263
t119.5 263t288.5 109q86 0 155 -26h495v-305h-83v-81h83v-305zM577 40h461v222h-83v163h83v223h-460q-67 26 -146 26q-151 0 -258 -97t-107 -234t107 -234t258 -97q77 0 145 28z" />
    <glyph glyph-name="oe" unicode="&#x153;" horiz-adv-x="926" 
d="M423 276q0 -21 -17 -36.5t-41 -15.5t-41 15.5t-17 36.5q0 22 17 37t41 15t41 -15t17 -37zM380 276q0 12 -15 12q-16 0 -16 -12t16 -12q15 0 15 12zM767 230h-128v112h128v-112zM834 62h-356q-51 -21 -113 -21q-113 0 -193.5 72t-80.5 173t80.5 173t193.5 72q58 0 113 -22
h356v-139h-217v-170h217v-138zM448 276q0 32 -24.5 54t-58.5 22t-58.5 -22.5t-24.5 -53.5t24.5 -53.5t58.5 -22.5t58.5 22.5t24.5 53.5zM902 -2h-410q-58 -21 -127 -21q-141 0 -241 90.5t-100 218.5t100 218.5t241 90.5q61 0 125 -22h412v-266h-67v-43h67v-266zM484 38h375
v186h-67v122h67v187h-377q-57 22 -117 22q-123 0 -211 -79t-88 -190t88 -190t211 -79q61 0 119 21z" />
    <glyph glyph-name="Scaron" unicode="&#x160;" horiz-adv-x="536" 
d="M452 443h-158q57 -24 94 -94.5t37 -151.5q0 -70 -31 -132h-310v169h161q-58 25 -96 95.5t-38 151.5q0 75 31 132h310v-170zM512 379h-71q45 -90 45 -182q0 -86 -57 -197h-405v299h72q-46 89 -46 182q0 92 58 197h404v-299zM367 419h107v219h-345q-41 -77 -41 -157
q0 -141 84 -223h-110v-218h345q41 82 41 157q0 60 -22.5 120.5t-58.5 101.5zM331 700h-121l-126 121h158l30 -33l34 33h146z" />
    <glyph glyph-name="scaron" unicode="&#x161;" horiz-adv-x="454" 
d="M373 365h-126q45 -19 75 -75.5t30 -121.5q0 -58 -25 -106h-245v136h128q-46 20 -76.5 76t-30.5 122q0 59 25 105h245v-136zM430 303h-50q30 -68 30 -135q0 -75 -49 -168h-337v260h51q-30 68 -30 136q0 76 50 167h335v-260zM314 342h81v182h-279q-35 -62 -35 -128
q0 -101 62 -175h-83v-182h280q34 62 34 129q0 103 -60 174zM290 585h-121l-126 121h158l30 -33l34 33h146z" />
    <glyph glyph-name="Ydieresis" unicode="&#x178;" horiz-adv-x="821" 
d="M680 613l-176 -284v-265h-189v265l-176 284h207l64 -112l63 112h207zM797 678l-229 -365v-313h-317v313q-140 222 -227 365h362l23 -44l26 44h362zM528 325l196 313h-266l-48 -88l-50 88h-264q41 -68 195 -315v-282h237v284zM576 766q0 -30 -23 -51.5t-54 -21.5
q-30 0 -52 22t-22 51t22.5 49t52.5 20q31 0 53.5 -19t22.5 -50zM394 767q0 -30 -23 -51.5t-53 -21.5t-52 21.5t-22 51.5q0 29 22.5 49t52.5 20q31 0 53 -19t22 -50z" />
    <glyph glyph-name="Zcaron" unicode="&#x17d;" horiz-adv-x="730" 
d="M606 65h-477l194 378h-200v170h478l-195 -379h200v-169zM670 0h-646l194 378h-158v300h646l-195 -379h159v-299zM89 40h541v218h-185l195 380h-541v-220h185zM428 700h-121l-126 121h158l30 -33l34 33h146z" />
    <glyph glyph-name="zcaron" unicode="&#x17e;" horiz-adv-x="624" 
d="M503 62h-380l155 302h-159v137h380l-155 -303h159v-136zM564 0h-540l153 302h-119v261h542l-156 -303h120v-260zM86 39h440v182h-143l154 303h-441v-183h144zM400 585h-121l-126 121h158l30 -33l34 33h146z" />
    <glyph glyph-name="florin" unicode="&#x192;" horiz-adv-x="774" 
d="M422 388h17q0 -9 -1 -13q2 0 7 0.5t8 0.5q23 0 41 -9.5t21 -28.5q23 9 48 9q32 0 54.5 -15.5t22.5 -44.5q0 -13 -9 -27q-3 -6 -8 -6q-10 0 -10 10q0 4 3 5q5 7 5 18q0 18 -14 29t-35 11q-41 0 -68 -19.5t-27 -39.5q0 -28 38 -28q17 0 28 5q1 0 2 0.5t2 0.5q8 0 8 -11
q-1 -31 -30 -53q-28 -20 -63 -20q-48 0 -76 32q-26 -32 -75 -32q-35 0 -63 20q-28 23 -31 53q0 11 9 11h1q1 -1 2 -1q13 -5 29 -5q40 0 40 28q0 19 -28.5 39t-69.5 20q-21 0 -35 -11t-14 -29q0 -7 7 -18q1 -3 1 -5q0 -10 -9 -10q-5 0 -8 6q-9 12 -9 27q0 29 22.5 44.5
t54.5 15.5q26 0 48 -9q2 19 21 28.5t40 9.5q3 0 8 -0.5t7 -0.5v16q0 28 5 40q5 17 10 17q6 0 12 -17q3 -18 3 -23l-16 -20h17q0 -11 -2 -25q16 -11 16 -29q0 -24 -27 -37q-28 -12 -28 -23q0 -16 20 -23.5t42 -7.5q23 0 43 7.5t20 23.5q0 12 -27 23q-28 14 -28 37q0 18 16 29
q-2 7 -2 28q0 28 5 40q3 17 10 17q6 0 12 -17l3 -24zM454 364q-22 0 -35 -10t-13 -20q0 -11 13 -21q14 -9 35 -9q23 0 36 9q13 10 13 21q0 10 -13 20t-36 10zM319 364q-23 0 -36 -10q-14 -10 -14 -20t14 -21q14 -9 36 -9q21 0 35 9q13 10 13 21q0 10 -13 20t-35 10zM450 244
q-23 -20 -64 -20q-40 0 -63 20q-26 -22 -65 -22q-4 0 -10 0.5t-9 0.5q18 -43 72 -43q46 0 67 35q4 4 8 4q6 0 8 -4q21 -35 68 -35q23 0 43.5 11t27.5 32q-2 0 -8 -0.5t-10 -0.5q-39 0 -65 22zM315 502q-113 -25 -113 -100q0 -4 1 -13t1 -15q0 -10 -9 -10q-7 0 -8 8
q-3 16 -3 30q0 64 46 112q-39 22 -49 65q0 9 10 9q8 0 9 -8q7 -28 32.5 -45t55.5 -17q29 0 53 15t33 41q3 6 9 6q7 0 9 -6q8 -26 32.5 -41t53.5 -15q30 0 56 17t32 45q1 8 9 8q9 0 9 -12q-7 -36 -44 -59q48 -50 48 -115q0 -19 -2 -30q-3 -8 -9 -8q-9 0 -9 12q2 18 2 26
q0 80 -97 98q-67 11 -90 50q-22 -36 -68 -48zM315 22h-10q-44 0 -80 20q-70 0 -119 51q-82 60 -82 134q0 59 51 108q-24 45 -24 91q0 103 100 176q96 72 235 72q140 0 236 -72q100 -73 100 -176q0 -45 -23 -91q51 -51 51 -108q0 -74 -83 -134q-49 -51 -120 -51
q-33 -20 -79 -20h-10q-34 -17 -72 -17q-37 0 -71 17zM578 64q45 9 76 42.5t31 79.5q0 38 -24 68l-3 6q0 10 9 10q3 0 9 -4q27 -35 27 -80q0 -21 -6 -42q34 39 34 83q0 53 -51 99q-2 4 -2 8q1 2 1 4q24 43 24 88q0 95 -92 161q-94 69 -225 69t-224 -68q-92 -68 -92 -162
q0 -47 23 -88l1 -2v-2q0 -4 -2 -8q-50 -45 -50 -99q0 -44 34 -83q-6 21 -6 42q0 44 28 80q4 4 8 4q8 0 8 -10q0 -3 -2 -6q-23 -29 -23 -68q0 -46 30.5 -79.5t75.5 -42.5q-46 41 -46 101q0 47 31 84q3 4 8 4q8 0 8 -8q0 -2 -0.5 -4t-0.5 -3q-28 -33 -28 -73q0 -48 34.5 -82
t81.5 -41q-52 42 -52 107q0 9 8 9q10 0 10 -9q0 -54 41.5 -89.5t95.5 -35.5q55 0 96.5 35.5t41.5 89.5q0 9 9 9t9 -9q0 -66 -53 -107q48 7 82.5 41t34.5 82q0 40 -27 73q-3 3 -3 7q0 8 9 8q6 0 7 -4q32 -37 32 -84q0 -60 -46 -101z" />
    <glyph glyph-name="circumflex" unicode="&#x2c6;" horiz-adv-x="416" 
d="M392 589h-159l-30 33l-34 -33h-145l179 181z" />
    <glyph glyph-name="caron" unicode="&#x2c7;" horiz-adv-x="416" 
d="M271 585h-121l-126 121h158l30 -33l34 33h146z" />
    <glyph glyph-name="ring" unicode="&#x2da;" horiz-adv-x="195" 
d="M98 705q30 0 51.5 -21t21.5 -52t-21.5 -52.5t-51.5 -21.5q-31 0 -52.5 21.5t-21.5 51.5q0 31 21 52.5t53 21.5zM97 679q-19 0 -33 -13.5t-14 -33.5t14 -33.5t33 -13.5t33 13.5t14 32.5q0 20 -13.5 34t-33.5 14z" />
    <glyph glyph-name="tilde" unicode="&#x2dc;" horiz-adv-x="468" 
d="M334 734h110q0 -62 -44 -106t-106 -44q-35 0 -73 22.5t-48 22.5q-17 0 -29 -11.5t-12 -28.5h-108q0 61 44 105t105 44q36 0 73.5 -22.5t47.5 -22.5q17 0 28.5 12t11.5 29z" />
    <glyph glyph-name="anoteleia" unicode="&#x387;" horiz-adv-x="301" 
d="M228 237q0 -24 -22.5 -41t-54.5 -17t-55 17t-23 41q0 23 23 40t55 17q31 0 54 -17t23 -40zM277 237q0 -43 -37 -72.5t-89 -29.5q-53 0 -90 29.5t-37 72.5t37 72.5t90 29.5q52 0 89 -29.5t37 -72.5zM246 237q0 31 -28 52t-67 21q-41 0 -69 -21t-28 -52t28.5 -52.5
t68.5 -21.5q39 0 67 21.5t28 52.5z" />
    <glyph glyph-name="mu" unicode="&#x3bc;" horiz-adv-x="587" 
d="M405 336v-153q0 -54 36 -54q17 0 26.5 23.5t19.5 23.5q5 0 10 -6t5 -17q0 -46 -22 -73t-56 -27q-59 0 -78 65q-14 -63 -86 -63q-60 0 -81 61q1 -24 1 -63q0 -80 -7.5 -106t-39.5 -26q-19 0 -33 14.5t-14 39.5q0 11 11 41t11 97v223h111v-171q0 -27 11.5 -43t26.5 -16
t26.5 15.5t11.5 43.5v171h110zM467 398v-162q5 1 20 1q28 0 52 -22t24 -62q0 -75 -38.5 -118t-100.5 -43q-43 0 -80 22q-36 -21 -84 -21q-7 0 -19 2q-2 -77 -23 -106t-85 -29q-44 0 -76.5 31t-32.5 84q0 24 12 56q11 24 11 82v285h420zM85 359v-246q0 -70 -14 -98
q-8 -20 -8 -40q0 -36 21 -56.5t49 -20.5q46 0 58 30.5t12 117.5q25 -14 57 -14q56 0 86 34q26 -36 78 -36q45 0 73 33t28 90q0 22 -12 34t-26 12q-13 0 -21 -5.5t-10.5 -11t-7.5 -18.5l-7 -12q-13 0 -13 31v176h-156v-194q0 -16 -4.5 -26t-10.5 -10q-14 0 -14 36v194h-158z
" />
    <glyph glyph-name="endash" unicode="&#x2013;" horiz-adv-x="465" 
d="M383 179h-302v96h302v-96zM441 136h-417v181h417v-181zM60 163h344v128h-344v-128z" />
    <glyph glyph-name="emdash" unicode="&#x2014;" horiz-adv-x="896" 
d="M805 179h-713v96h713v-96zM872 136h-848v181h848v-181zM67 163h763v128h-763v-128z" />
    <glyph glyph-name="afii00208" unicode="&#x2015;" horiz-adv-x="896" 
d="M805 179h-713v96h713v-96zM872 136h-848v181h848v-181zM67 163h763v128h-763v-128z" />
    <glyph glyph-name="quoteleft" unicode="&#x2018;" horiz-adv-x="249" 
d="M166 627l-17 -61q26 -20 26 -57q0 -27 -15 -46t-37 -19q-26 0 -40.5 21.5t-14.5 53.5q0 42 25.5 75t72.5 33zM225 678l-25 -97q19 -32 19 -72q0 -48 -28 -82t-68 -34q-47 0 -73 36.5t-26 89.5q0 73 50.5 116t150.5 43zM168 572l20 74q-66 0 -101.5 -38.5t-35.5 -88.5
q0 -40 19 -67t53 -27q28 0 48 24.5t20 59.5q0 38 -23 63z" />
    <glyph glyph-name="quoteright" unicode="&#x2019;" horiz-adv-x="250" 
d="M84 445l17 60q-26 19 -26 57q0 27 15 46.5t37 19.5q26 0 40.5 -22t14.5 -53q0 -42 -25.5 -75t-72.5 -33zM24 394l26 96q-19 29 -19 72q0 48 28 82.5t68 34.5q46 0 72.5 -37t26.5 -89q0 -72 -51 -115.5t-151 -43.5zM81 499l-19 -73q65 0 100.5 38.5t35.5 88.5q0 40 -19 67
t-52 27q-29 0 -49 -25t-20 -60q0 -38 23 -63z" />
    <glyph glyph-name="quotesinglbase" unicode="&#x201a;" horiz-adv-x="251" 
d="M85 -12l17 60q-26 20 -26 57q0 27 15 46t37 19q26 0 40.5 -22t14.5 -53q0 -42 -25.5 -74.5t-72.5 -32.5zM24 -63l28 97q-20 31 -20 71q0 48 28 82.5t68 34.5q46 0 72.5 -37.5t26.5 -89.5q0 -63 -53 -110.5t-150 -47.5zM82 42l-19 -73q65 0 100.5 38.5t35.5 87.5
q0 40 -19 67.5t-52 27.5q-29 0 -49 -25t-20 -60q0 -36 23 -63z" />
    <glyph glyph-name="quotedblleft" unicode="&#x201c;" horiz-adv-x="472" 
d="M367 626l-23 -61q35 -20 35 -57q0 -27 -20 -46t-49 -19q-34 0 -53 21.5t-19 53.5q0 42 34 75t95 33zM209 626l-21 -61q34 -19 34 -57q0 -27 -20 -46t-49 -19q-34 0 -53 21.5t-19 53.5q0 42 33.5 75t94.5 33zM448 677l-37 -98q26 -29 26 -71q0 -48 -37 -82t-90 -34
q-46 0 -80 23q-32 -23 -77 -23q-60 0 -94.5 36.5t-34.5 89.5q0 73 63 116t201 43l-12 -34q71 34 172 34zM213 571l26 74q-86 0 -132.5 -38.5t-46.5 -88.5q0 -40 24.5 -67t68.5 -27q52 0 77 41q26 -41 80 -41q37 0 63.5 25t26.5 59q0 39 -30 64l26 73q-66 0 -110 -24.5
t-61 -61.5z" />
    <glyph glyph-name="quotedblright" unicode="&#x201d;" horiz-adv-x="470" 
d="M102 445l22 60q-34 19 -34 57q0 27 20 46.5t49 19.5q34 0 53 -22t19 -53q0 -42 -34 -75t-95 -33zM259 445l22 60q-34 19 -34 57q0 27 20 46.5t48 19.5q34 0 53.5 -22t19.5 -53q0 -42 -34 -75t-95 -33zM24 389l34 101q-25 29 -25 72q0 48 36.5 82.5t89.5 34.5q46 0 80 -24
q34 24 76 24q60 0 95.5 -37t35.5 -89q0 -30 -12.5 -57t-41 -52t-83.5 -40t-130 -15l12 37q-78 -37 -167 -37zM256 499l-27 -73q86 0 133 38.5t47 88.5q0 40 -25 67t-69 27q-51 0 -77 -41q-26 41 -79 41q-38 0 -64 -25t-26 -60q0 -39 30 -63l-26 -73q67 0 110.5 24t59.5 61
q4 -4 13 -12z" />
    <glyph glyph-name="quotedblbase" unicode="&#x201e;" horiz-adv-x="472" 
d="M104 -12l22 60q-34 19 -34 57q0 27 20 46t49 19q34 0 53 -22t19 -53q0 -42 -34 -74.5t-95 -32.5zM261 -12l22 60q-34 19 -34 57q0 27 20 46t48 19q34 0 53.5 -22t19.5 -53q0 -42 -34 -74.5t-95 -32.5zM24 -63l36 97q-25 33 -25 71q0 48 36.5 82.5t89.5 34.5q46 0 80 -24
q34 24 76 24q60 0 95.5 -37.5t35.5 -89.5q0 -62 -70 -110t-197 -48l12 32q-67 -32 -169 -32zM258 41l-27 -72q86 0 133 38.5t47 87.5q0 40 -25 67.5t-69 27.5q-51 0 -77 -42q-26 42 -79 42q-38 0 -64 -25t-26 -60q0 -37 29 -63l-25 -73q67 0 110.5 24t59.5 61q6 -7 13 -13z
" />
    <glyph glyph-name="dagger" unicode="&#x2020;" horiz-adv-x="453" 
d="M196 -84v188q0 113 -42 183q1 3 9 19l10.5 21t8.5 20t8 24.5t4 24.5t2 30q-13 0 -51 -16.5t-59 -16.5q-25 0 -43.5 19t-18.5 45q0 25 18 43.5t44 18.5q21 0 57 -15t53 -17q0 19 -16 62t-16 61q0 26 18 44t44 18t44.5 -18t18.5 -44q0 -18 -16.5 -61t-16.5 -62q13 0 51 16
t59 16q26 0 44.5 -18.5t18.5 -43.5q0 -26 -18.5 -45t-44.5 -19q-21 0 -56.5 15.5t-53.5 17.5q0 -15 2 -30t4 -24.5t8 -24.5t8.5 -20l10.5 -21t9 -19q-42 -72 -42 -183v-188h-60z" />
    <glyph glyph-name="daggerdbl" unicode="&#x2021;" horiz-adv-x="453" 
d="M429 112q0 -26 -18.5 -44.5t-44.5 -18.5q-21 0 -57.5 16t-52.5 17q0 -19 16.5 -62.5t16.5 -60.5q0 -26 -18.5 -44.5t-44.5 -18.5t-44 18.5t-18 44.5q0 17 16 60.5t16 62.5q-12 0 -50.5 -16.5t-59.5 -16.5q-26 0 -44 18.5t-18 44.5t18 44t44 18q22 0 58.5 -15.5
t51.5 -16.5q0 82 -45 141q24 35 34.5 65t10.5 78q-13 0 -51 -16.5t-59 -16.5q-25 0 -43.5 19t-18.5 45q0 25 18 43.5t44 18.5q21 0 57 -15t53 -17q0 19 -16 62t-16 61q0 26 18 44t44 18t44.5 -18t18.5 -44q0 -18 -16.5 -61t-16.5 -62q13 0 51 16t59 16q26 0 44.5 -18.5
t18.5 -43.5q0 -26 -18.5 -45t-44.5 -19q-21 0 -56.5 15.5t-53.5 17.5q0 -36 6.5 -62.5t14 -41t23.5 -38.5q-44 -62 -44 -142q12 0 50.5 16t59.5 16q26 0 44.5 -18.5t18.5 -43.5z" />
    <glyph glyph-name="bullet" unicode="&#x2022;" horiz-adv-x="350" 
d="M274 262q0 -40 -29 -68.5t-70 -28.5t-69.5 28.5t-28.5 68.5q0 42 28.5 71t69.5 29t70 -29t29 -71zM326 262q0 -62 -44.5 -106t-106.5 -44t-106.5 44t-44.5 106t44.5 106.5t106.5 44.5t106.5 -44.5t44.5 -106.5zM294 262q0 49 -35 84t-84 35q-48 0 -83 -35t-35 -84
q0 -48 35 -82.5t83 -34.5q49 0 84 34t35 83z" />
    <glyph glyph-name="ellipsis" unicode="&#x2026;" horiz-adv-x="875" 
d="M784 94q0 -24 -31 -41t-75 -17t-75 17t-31 41q0 23 31 40t74 17q44 0 75.5 -17t31.5 -40zM545 94q0 -24 -31 -41t-75 -17t-75 17t-31 41q0 23 31 40t74 17q44 0 75.5 -17t31.5 -40zM303 94q0 -24 -31 -41t-74 -17q-44 0 -75.5 17t-31.5 41q0 23 31.5 40t75.5 17
q43 0 74 -17t31 -40zM851 94q0 -42 -51 -72t-122 -30q-67 0 -120 28q-51 -28 -119 -28q-70 0 -120 29q-50 -29 -121 -29t-122.5 30t-51.5 72t51 72t123 30q68 0 120 -30q52 30 120 30q70 0 120 -29q50 29 119 29q72 0 123 -30t51 -72zM810 94q0 30 -39.5 52t-93.5 22
q-39 0 -71.5 -12.5t-47.5 -31.5q-37 44 -120 44q-39 0 -72 -13t-48 -33q-15 20 -48 33t-72 13q-54 0 -93 -22t-39 -52q0 -31 39 -52.5t93 -21.5q39 0 72 12.5t48 32.5q15 -20 48.5 -32.5t72.5 -12.5q83 0 119 43q36 -43 120 -43q55 0 93.5 21.5t38.5 52.5z" />
    <glyph glyph-name="perthousand" unicode="&#x2030;" horiz-adv-x="1088" 
d="M820 192q0 10 7 16.5t18 6.5q10 0 16.5 -6.5t6.5 -16.5q0 -11 -6.5 -18t-16.5 -7q-11 0 -18 7.5t-7 17.5zM553 192q0 10 7 16.5t18 6.5q10 0 16.5 -6.5t6.5 -16.5q0 -11 -6.5 -18t-16.5 -7t-17.5 7.5t-7.5 17.5zM220 483q0 10 6.5 17t16.5 7t17 -7t7 -17t-7 -16.5
t-17 -6.5t-16.5 6.5t-6.5 16.5zM995 196q0 -56 -44 -95t-106 -39q-43 0 -79 19.5t-55 52.5q-19 -33 -54.5 -52.5t-78.5 -19.5q-62 0 -106.5 39.5t-44.5 94.5t44.5 94.5t106.5 39.5q43 0 78.5 -20t54.5 -52q19 32 55 52t79 20q62 0 106 -39t44 -95zM890 191q0 17 -13 29
t-32 12t-32.5 -12t-13.5 -29t13.5 -29.5t32.5 -12.5t32 12.5t13 29.5zM623 191q0 17 -13 29t-32 12t-32.5 -12t-13.5 -29t13.5 -29.5t32.5 -12.5t32 12.5t13 29.5zM657 616l-358 -551h-130l346 551h142zM394 489q0 -56 -44.5 -95.5t-106.5 -39.5t-106 39.5t-44 95.5
q0 55 44 94.5t106 39.5t106.5 -39.5t44.5 -94.5zM289 483q0 18 -13.5 30t-32.5 12t-32.5 -12t-13.5 -30q0 -17 13.5 -29t32.5 -12t32.5 12t13.5 29zM779 681l-187 -287q63 -4 119 -40q63 41 134 41q91 0 155 -58t64 -141q0 -82 -64 -140.5t-155 -58.5q-72 0 -134 40
q-60 -40 -133 -40q-57 0 -105.5 24.5t-78.5 65.5l-56 -87h-290l181 289q-87 5 -146 62.5t-59 137.5q0 82 64 140.5t155 58.5q55 0 102.5 -23.5t78.5 -64.5l51 81h304zM510 342l193 299h-202l-83 -132q-9 58 -59 98t-116 40q-73 0 -124.5 -46.5t-51.5 -111.5q0 -67 51 -113
t125 -46q37 0 71 13l-190 -302h191l87 134q8 -59 58.5 -98.5t117.5 -39.5q82 0 133 56q51 -56 134 -56q73 0 124.5 46.5t51.5 112.5t-51 112t-125 46q-82 0 -134 -54q-54 54 -133 54q-32 0 -68 -12z" />
    <glyph glyph-name="guilsinglleft" unicode="&#x2039;" horiz-adv-x="314" 
d="M217 162h-96l-46 128l46 133h96l-47 -133zM290 106h-201l-65 183l65 190h199l-66 -189zM109 141h135l-55 149l55 154h-135l-53 -155z" />
    <glyph glyph-name="guilsinglright" unicode="&#x203a;" horiz-adv-x="314" 
d="M191 162h-95l47 128l-47 133h95l47 -133zM222 106h-198l67 184l-66 189h198l67 -189zM69 141h134l54 148l-54 155h-134l54 -154z" />
    <glyph glyph-name="Euro" unicode="&#x20ac;" horiz-adv-x="628" 
d="M524 614l-67 -197q-5 1 -13 1q-31 0 -54 -17h61l-16 -49h-77q-3 -10 -3 -22h73l-16 -48h-42q27 -40 72 -40q32 0 60 23v-202q-35 -7 -59 -7q-99 0 -179 63t-101 163h-52l17 48h28v22h-45l16 49h35q22 100 101.5 162t178.5 62q45 0 82 -11zM604 659l-104 -311l64 55v-395
q-88 -17 -121 -17q-107 0 -197 61.5t-129 163.5h-93l24 71h-24l59 179h33q39 102 129.5 163t196.5 61q45 0 162 -31zM431 267l123 364q-64 18 -112 18q-102 0 -185.5 -61t-112.5 -162h-33l-32 -98h23l-23 -71h66q28 -101 112 -163t186 -62q29 0 82 11v274q-59 -51 -83 -51
q-8 0 -11 1z" />
    <glyph glyph-name="trademark" unicode="&#x2122;" horiz-adv-x="396" 
d="M317 419h-44v34l-26 -40l-26 40v-34h-44v101h44l26 -35l27 35h43v-101zM171 488h-24v-69h-44v69h-24v32h92v-32zM372 375h-323v70h-25v118h348v-188zM264 402h74v134h-76l-15 -20l-13 20h-176v-64h25v-70h148l16 -25z" />
    <glyph glyph-name="minus" unicode="&#x2212;" horiz-adv-x="465" 
d="M383 179h-302v96h302v-96zM441 136h-417v181h417v-181zM60 163h344v128h-344v-128z" />
    </font>
</defs>
</svg>
